{"glyphs":{"0":{"ha":908,"x_min":129,"x_max":778,"o":"m 468 921 q 688 820 597 914 q 778 597 778 726 l 778 319 q 688 96 778 189 q 468 -4 597 3 l 468 135 q 590 194 540 142 q 639 319 639 247 l 639 597 q 590 722 639 669 q 468 782 540 775 l 468 921 m 431 -3 q 217 99 304 6 q 129 319 129 192 l 129 597 q 217 818 129 725 q 431 919 304 911 l 431 781 q 315 720 363 772 q 268 597 268 668 l 268 319 q 315 197 268 249 q 431 136 363 144 l 431 -3 z "},"1":{"ha":908,"x_min":286,"x_max":622,"o":"m 286 679 q 476 871 315 708 q 579 925 543 925 q 622 847 622 925 l 622 0 l 483 0 l 483 679 l 385 582 l 286 679 z "},"2":{"ha":908,"x_min":131,"x_max":778,"o":"m 328 179 l 588 479 q 633 600 633 532 q 597 709 633 660 q 501 775 561 758 q 451 782 476 782 q 324 729 379 782 q 269 601 269 676 l 131 601 q 260 857 131 763 q 451 921 346 921 q 540 908 496 921 q 708 793 643 879 q 772 600 772 707 q 692 388 772 481 l 511 179 l 328 179 m 139 139 l 778 139 l 778 0 l 139 0 l 139 139 z "},"3":{"ha":908,"x_min":258,"x_max":650,"o":"m 650 286 q 567 83 650 167 q 365 0 483 0 l 258 0 l 258 138 l 365 139 q 469 183 426 140 q 511 286 511 225 q 469 389 511 346 q 365 432 426 432 l 258 432 l 258 563 q 335 595 303 563 q 368 672 368 628 q 335 751 368 718 q 258 783 303 783 l 258 922 q 434 849 361 922 q 507 672 507 776 q 474 549 507 607 q 601 445 553 517 q 650 286 650 374 z "},"4":{"ha":908,"x_min":92,"x_max":817,"o":"m 632 718 l 328 388 l 632 388 l 632 249 l 169 249 q 92 307 92 249 q 118 365 92 336 l 632 922 l 632 718 m 678 922 l 817 922 l 817 0 l 678 0 l 678 922 z "},"5":{"ha":908,"x_min":272,"x_max":636,"o":"m 274 924 l 636 924 l 636 785 l 274 785 l 274 924 m 272 726 q 530 620 424 726 q 636 364 636 514 q 530 106 636 213 q 272 0 424 0 l 272 139 q 431 205 365 139 q 497 364 497 271 q 431 522 497 456 q 272 588 365 588 l 272 726 z "},"6":{"ha":908,"x_min":133,"x_max":775,"o":"m 454 0 q 227 94 321 0 q 133 321 133 188 q 164 458 133 393 l 379 922 l 506 864 l 290 399 q 272 321 272 360 q 326 192 272 246 q 454 139 379 139 q 544 163 504 139 l 457 0 l 454 0 m 636 321 q 583 449 636 396 q 454 503 529 503 q 342 464 392 503 l 425 640 q 454 642 439 642 q 681 548 588 642 q 775 321 775 454 q 682 94 775 188 q 494 3 601 14 l 597 210 q 636 321 636 257 z "},"7":{"ha":908,"x_min":218,"x_max":690,"o":"m 218 281 l 499 785 l 218 785 l 218 924 l 618 924 q 690 864 690 924 q 678 819 690 842 l 218 0 l 218 281 z "},"8":{"ha":908,"x_min":129,"x_max":779,"o":"m 489 660 q 501 669 496 664 q 521 717 521 689 q 501 764 521 744 q 454 783 482 783 q 407 764 426 783 q 388 717 388 744 q 407 669 388 689 q 450 650 425 651 l 631 600 q 738 485 697 556 q 779 325 779 410 q 684 95 779 190 q 454 0 589 0 q 224 95 319 0 q 129 325 129 190 q 264 589 129 492 q 390 500 306 515 q 302 433 336 481 q 268 325 268 385 q 322 194 268 249 q 454 139 376 139 q 586 194 532 139 q 640 325 640 249 q 586 457 640 403 q 454 511 532 511 q 309 572 369 511 q 249 717 249 632 q 309 862 249 801 q 454 922 369 922 q 599 862 539 922 q 660 717 660 801 q 635 618 660 664 l 489 660 z "},"9":{"ha":908,"x_min":47,"x_max":689,"o":"m 385 922 q 596 829 507 917 q 689 601 689 735 q 658 464 689 529 l 443 0 l 318 58 l 533 524 q 550 601 550 560 q 497 730 550 676 q 368 783 444 783 q 290 767 325 783 l 385 922 m 186 601 q 240 473 186 526 q 368 419 293 419 q 481 458 432 419 l 397 282 q 368 281 383 281 q 142 374 236 281 q 47 601 47 468 q 142 829 47 735 q 346 921 228 914 l 221 708 q 186 601 186 663 z "}," ":{"ha":501,"x_min":0,"x_max":0,"o":""},"!":{"ha":311,"x_min":71,"x_max":256,"o":"m 96 922 l 235 922 l 235 250 l 96 250 l 96 922 m 71 92 q 98 157 71 131 q 163 183 125 183 q 228 157 201 183 q 256 92 256 131 q 228 27 256 54 q 163 0 201 0 q 98 27 125 0 q 71 92 71 54 z "},"\"":{"ha":489,"x_min":-162,"x_max":422,"o":"m 147 822 l -64 611 l -162 710 l 49 921 l 147 822 m 422 819 l 211 608 l 113 707 l 324 918 l 422 819 z "},"#":{"ha":888,"x_min":63,"x_max":810,"o":"m 515 654 l 515 826 l 654 826 l 654 654 l 515 654 m 810 515 l 654 515 l 654 654 l 810 654 l 810 515 m 376 654 l 515 654 l 515 515 l 376 515 l 376 654 m 238 654 l 238 826 l 376 826 l 376 654 l 238 654 m 238 515 l 63 515 l 63 654 l 238 654 l 238 515 m 515 376 l 515 515 l 654 515 l 654 376 l 515 376 m 238 376 l 238 515 l 376 515 l 376 376 l 238 376 m 238 238 l 63 238 l 63 376 l 238 376 l 238 238 m 376 238 l 376 79 l 238 79 l 238 238 l 376 238 m 515 238 l 376 238 l 376 376 l 515 376 l 515 238 m 654 238 l 654 79 l 515 79 l 515 238 l 654 238 m 810 238 l 654 238 l 654 376 l 810 376 l 810 238 z "},"$":{"ha":658,"x_min":60,"x_max":610,"o":"m 406 542 q 552 445 494 519 q 610 276 610 371 q 552 108 610 182 q 406 11 494 35 l 406 160 q 471 276 471 200 q 406 393 471 353 l 406 542 m 406 910 q 538 819 486 886 q 589 667 589 751 l 450 667 q 406 757 450 722 l 406 910 m 267 910 l 267 1004 l 406 1004 l 406 910 q 335 919 371 919 q 267 910 300 919 m 267 574 l 267 758 q 335 781 297 781 q 406 757 375 781 l 406 542 q 332 553 397 544 q 267 574 289 558 m 267 422 q 133 513 185 444 q 82 667 82 581 q 134 820 82 753 q 267 910 186 888 l 267 758 q 221 667 221 724 q 267 574 221 608 l 267 422 m 267 160 l 267 422 q 338 411 285 417 q 406 393 383 406 l 406 160 q 335 140 374 140 q 267 160 299 140 m 267 11 q 118 108 176 33 q 60 276 60 182 l 199 276 q 267 160 199 199 l 267 11 m 406 -101 l 267 -101 l 267 11 q 335 1 300 1 q 406 11 371 1 l 406 -101 z "},"%":{"ha":847,"x_min":57,"x_max":778,"o":"m 60 197 l 778 915 l 778 719 l 60 0 l 60 197 m 394 864 q 436 760 436 821 q 392 650 436 694 l 331 589 q 221 544 286 544 q 118 586 160 544 l 192 660 q 221 649 203 649 q 257 663 243 649 l 318 724 q 332 760 332 738 q 321 790 332 778 l 394 864 m 99 606 q 57 706 57 646 q 103 817 57 771 l 164 878 q 275 924 210 924 q 375 883 335 924 l 301 808 q 274 819 290 819 q 238 804 253 819 l 176 743 q 161 707 161 728 q 172 679 161 689 l 99 606 m 732 319 q 774 217 774 278 q 729 107 774 151 l 668 46 q 558 0 622 0 q 454 43 497 0 l 528 117 q 558 106 540 106 q 593 119 579 106 l 654 181 q 669 217 669 196 q 658 246 669 235 l 732 319 m 435 63 q 394 163 394 103 q 440 274 394 228 l 501 335 q 613 381 547 381 q 713 339 671 381 l 639 265 q 611 276 628 276 q 575 261 590 276 l 514 200 q 499 164 499 185 q 508 136 499 146 l 435 63 z "},"&":{"ha":746,"x_min":56,"x_max":706,"o":"m 381 139 q 249 194 303 139 q 194 325 194 249 q 249 457 194 403 q 381 511 303 511 q 526 572 465 511 q 586 717 586 632 q 526 862 586 801 q 381 922 465 922 q 235 862 294 922 q 175 717 175 801 q 210 603 175 654 q 97 484 139 558 q 56 325 56 410 q 151 95 56 190 q 381 0 246 0 q 610 95 515 0 q 706 325 706 190 l 567 325 q 512 194 567 249 q 381 139 457 139 m 314 717 q 333 764 314 744 q 381 783 353 783 q 428 764 408 783 q 447 717 447 744 q 428 669 447 689 q 381 650 408 650 q 333 669 353 650 q 314 717 314 689 z "},"'":{"ha":433,"x_min":56,"x_max":365,"o":"m 365 822 l 154 611 l 56 710 l 267 921 l 365 822 z "},"(":{"ha":476,"x_min":57,"x_max":408,"o":"m 349 0 q 137 185 217 61 q 57 458 57 310 q 137 731 57 607 q 349 917 217 856 l 408 792 q 254 657 313 747 q 196 458 196 567 q 254 261 196 351 q 408 126 313 171 l 349 0 z "},")":{"ha":450,"x_min":40,"x_max":392,"o":"m 99 0 q 312 185 232 61 q 392 458 392 310 q 312 731 392 607 q 99 917 232 856 l 40 792 q 194 657 136 747 q 253 458 253 567 q 194 261 253 351 q 40 126 136 171 l 99 0 z "},"*":{"ha":669,"x_min":63,"x_max":593,"o":"m 563 581 l 499 515 l 397 515 l 397 610 l 465 678 l 563 581 m 593 376 l 490 376 l 425 442 l 499 515 l 593 515 l 593 376 m 397 610 l 326 540 l 258 608 l 258 711 l 397 711 l 397 610 m 563 303 l 465 206 l 397 274 l 397 376 l 490 376 l 563 303 m 258 515 l 154 515 l 90 581 l 188 678 l 258 608 l 258 515 m 228 442 l 163 376 l 63 376 l 63 515 l 154 515 l 228 442 m 397 181 l 258 181 l 258 275 l 326 343 l 397 274 l 397 181 m 258 275 l 188 206 l 90 303 l 163 376 l 258 376 l 258 275 z "},"+":{"ha":646,"x_min":50,"x_max":581,"o":"m 385 181 l 246 181 l 246 376 l 50 376 l 50 515 l 246 515 l 246 711 l 385 711 l 385 515 l 581 515 l 581 376 l 385 376 l 385 181 z "},",":{"ha":440,"x_min":57,"x_max":365,"o":"m 365 92 l 154 -119 l 57 -21 l 268 190 l 365 92 z "},"-":{"ha":697,"x_min":76,"x_max":607,"o":"m 76 515 l 607 515 l 607 376 l 76 376 l 76 515 z "},".":{"ha":347,"x_min":72,"x_max":257,"o":"m 72 92 q 99 157 72 131 q 164 183 126 183 q 230 157 203 183 q 257 92 257 131 q 230 27 257 54 q 164 0 203 0 q 99 27 126 0 q 72 92 72 54 z "},"/":{"ha":756,"x_min":8,"x_max":726,"o":"m 8 197 l 726 915 l 726 719 l 8 0 l 8 197 z "},":":{"ha":57,"x_min":-293,"x_max":-103,"o":"m -287 92 q -260 157 -287 131 q -196 183 -233 183 q -130 157 -157 183 q -103 92 -103 131 q -130 27 -103 54 q -196 0 -157 0 q -260 27 -233 0 q -287 92 -287 54 m -293 542 q -266 607 -293 581 q -201 633 -239 633 q -135 607 -162 633 q -108 542 -108 581 q -135 477 -108 504 q -201 450 -162 450 q -266 477 -239 450 q -293 542 -293 504 z "},";":{"ha":522,"x_min":-197,"x_max":533,"o":"m -197 542 q -170 607 -197 581 q -106 633 -143 633 q -40 607 -67 633 q -12 542 -12 581 q -40 477 -12 504 q -106 450 -67 450 q -170 477 -143 450 q -197 542 -197 504 m 533 92 l 322 -119 l 225 -21 l 436 190 l 533 92 z "},"<":{"ha":440,"x_min":56,"x_max":364,"o":"m 364 665 l 213 483 l 364 301 l 364 83 l 68 439 q 56 483 56 454 q 68 528 56 513 l 364 883 l 364 665 z "},"=":{"ha":664,"x_min":76,"x_max":607,"o":"m 76 376 l 607 376 l 607 238 l 76 238 l 76 376 m 76 654 l 607 654 l 607 515 l 76 515 l 76 654 z "},">":{"ha":835,"x_min":471,"x_max":781,"o":"m 471 665 l 622 483 l 471 301 l 471 83 l 767 439 q 781 483 781 456 q 767 528 781 511 l 471 883 l 471 665 z "},"?":{"ha":749,"x_min":47,"x_max":689,"o":"m 504 479 q 550 600 550 532 q 514 709 550 660 q 418 775 478 758 q 368 782 393 782 q 240 729 294 782 q 186 601 186 676 l 47 601 q 175 857 47 763 q 368 921 261 921 q 456 908 411 921 q 624 793 560 879 q 689 600 689 707 q 608 388 689 481 l 461 218 l 278 218 l 504 479 m 278 92 q 305 157 278 131 q 369 183 332 183 q 435 157 408 183 q 461 92 461 131 q 435 27 461 54 q 369 0 408 0 q 305 27 332 0 q 278 92 278 54 z "},"@":{"ha":1074,"x_min":85,"x_max":1013,"o":"m 521 229 q 379 299 439 238 q 308 468 308 369 q 379 639 308 568 q 521 707 439 699 l 521 601 q 453 565 482 594 q 413 468 413 525 q 453 374 413 413 q 521 336 482 343 l 521 229 m 557 708 q 719 639 651 706 q 789 468 789 568 l 789 228 l 685 228 l 685 468 q 644 565 685 525 q 557 604 607 601 l 557 708 m 557 333 q 646 374 608 336 l 646 249 q 557 228 604 229 l 557 333 m 521 788 q 319 694 404 779 q 224 464 224 599 q 319 235 224 329 q 521 140 404 149 l 521 1 q 221 136 347 10 q 85 464 85 272 q 221 792 85 656 q 521 926 347 918 l 521 788 m 557 139 q 779 235 686 142 q 874 464 874 329 q 779 694 874 599 q 557 789 686 786 l 557 928 q 876 792 743 925 q 1013 464 1013 656 q 876 136 1013 272 q 557 0 743 3 l 557 139 z "},"A":{"ha":803,"x_min":71,"x_max":719,"o":"m 539 714 q 526 728 533 721 q 394 782 471 782 q 263 728 317 782 q 210 597 210 674 l 210 0 l 71 0 l 71 597 q 165 826 71 732 q 394 921 260 921 q 539 888 472 921 l 539 714 m 572 868 q 624 826 599 850 q 719 597 719 732 l 719 0 l 581 0 l 581 194 l 238 194 l 238 333 l 581 333 l 581 597 q 572 653 581 626 l 572 868 z "},"B":{"ha":781,"x_min":61,"x_max":704,"o":"m 201 690 q 200 672 200 682 l 200 138 l 201 138 l 201 0 l 61 0 l 61 672 q 135 850 61 776 q 201 897 165 879 l 201 690 m 236 138 l 418 139 q 522 182 479 139 q 565 286 565 225 q 522 389 565 346 q 418 432 479 432 l 250 432 l 250 563 l 311 563 q 390 595 357 563 q 422 672 422 628 q 390 751 422 718 q 311 783 357 783 q 236 754 267 783 l 236 911 q 311 922 271 922 q 488 849 414 922 q 561 672 561 776 q 528 549 561 607 q 656 445 607 517 q 704 286 704 374 q 621 83 704 167 q 418 0 538 0 l 236 0 l 236 138 z "},"C":{"ha":511,"x_min":49,"x_max":508,"o":"m 508 0 q 183 135 318 0 q 49 461 49 269 q 183 786 49 651 q 508 921 318 921 l 508 782 q 281 688 375 782 q 188 461 188 593 q 281 233 188 328 q 508 139 375 139 l 508 0 z "},"D":{"ha":778,"x_min":64,"x_max":725,"o":"m 194 0 l 133 0 q 85 21 106 0 q 64 69 64 42 l 64 922 l 194 922 l 194 0 m 240 139 l 257 139 q 489 234 392 139 q 586 463 586 329 q 492 689 586 594 q 264 783 397 783 l 244 783 l 244 922 l 264 922 q 590 788 456 922 q 725 463 725 653 q 587 136 725 272 q 257 0 449 0 l 240 0 l 240 139 z "},"E":{"ha":657,"x_min":67,"x_max":621,"o":"m 206 746 l 206 139 l 621 139 l 621 0 l 136 0 q 88 21 108 0 q 67 69 67 42 l 67 746 l 206 746 m 67 922 l 621 922 l 621 783 l 67 783 l 67 922 m 244 496 l 621 496 l 621 357 l 244 357 l 244 496 z "},"F":{"ha":635,"x_min":61,"x_max":615,"o":"m 200 0 l 200 783 l 615 783 l 615 922 l 131 922 q 82 901 103 922 q 61 853 61 881 l 61 0 l 200 0 m 239 426 l 615 426 l 615 565 l 239 565 l 239 426 z "},"G":{"ha":1006,"x_min":42,"x_max":978,"o":"m 782 86 q 510 0 663 0 q 178 135 315 0 q 42 463 42 271 q 178 790 42 654 q 510 925 315 925 q 858 771 719 925 l 756 679 q 510 788 657 788 q 277 692 374 788 q 181 463 181 597 q 277 233 181 328 q 510 138 374 138 q 717 211 626 138 q 782 279 756 242 l 782 86 m 829 383 q 832 394 831 389 l 238 396 q 226 467 226 433 q 238 532 226 501 l 908 531 q 957 510 936 531 q 978 463 978 490 q 840 136 978 271 q 829 125 835 131 l 829 383 z "},"H":{"ha":815,"x_min":76,"x_max":725,"o":"m 725 922 l 725 0 l 586 0 l 586 194 l 243 194 l 243 333 l 586 333 l 586 922 l 725 922 m 215 922 l 215 0 l 76 0 l 76 922 l 215 922 z "},"I":{"ha":306,"x_min":76,"x_max":215,"o":"m 76 922 l 215 922 l 215 0 l 76 0 l 76 922 z "},"J":{"ha":582,"x_min":51,"x_max":511,"o":"m 511 461 q 376 135 511 269 q 51 0 242 0 l 51 139 q 278 233 185 139 q 372 461 372 328 l 372 922 l 511 922 l 511 461 z "},"K":{"ha":778,"x_min":64,"x_max":703,"o":"m 572 921 q 479 694 572 788 q 254 601 386 601 l 254 740 q 381 793 328 740 q 433 921 433 846 l 572 921 m 701 249 l 699 0 l 563 0 l 563 249 q 510 376 563 324 q 383 429 457 429 q 254 375 307 429 l 254 540 q 383 568 315 568 q 609 474 515 568 q 701 249 703 381 m 203 0 l 64 0 l 64 922 l 203 922 l 203 0 z "},"L":{"ha":618,"x_min":51,"x_max":606,"o":"m 190 922 l 190 139 l 606 139 l 606 0 l 121 0 q 72 21 93 0 q 51 69 51 42 l 51 922 l 190 922 z "},"M":{"ha":985,"x_min":76,"x_max":894,"o":"m 76 0 l 76 842 q 119 919 76 919 q 286 806 171 919 q 454 632 336 756 l 704 882 l 703 685 q 543 519 610 588 q 456 464 488 464 q 369 517 422 464 q 215 674 368 518 l 215 0 l 76 0 m 894 922 l 894 0 l 756 0 l 756 922 l 894 922 z "},"N":{"ha":813,"x_min":76,"x_max":722,"o":"m 76 0 l 76 842 q 94 900 76 878 q 139 922 113 922 q 206 876 179 922 l 547 292 l 547 19 l 215 586 l 215 0 l 76 0 m 722 922 l 722 0 l 583 0 l 583 922 l 722 922 z "},"O":{"ha":1049,"x_min":53,"x_max":981,"o":"m 560 142 q 747 235 667 154 q 842 464 842 329 q 747 694 842 599 q 560 786 667 774 l 560 926 q 846 792 725 913 q 981 464 981 656 q 846 136 981 272 q 560 1 725 15 l 560 142 m 489 788 q 288 694 374 779 q 192 464 192 599 q 288 235 192 329 q 489 140 374 149 l 489 1 q 189 136 315 10 q 53 464 53 272 q 189 792 53 656 q 489 926 315 918 l 489 788 z "},"P":{"ha":726,"x_min":53,"x_max":690,"o":"m 515 888 q 372 919 451 919 q 147 826 240 919 q 53 600 53 733 l 53 0 l 192 0 l 192 600 q 244 728 192 675 q 372 781 297 781 q 499 728 446 781 q 515 708 508 718 l 515 888 m 551 600 q 499 474 551 526 q 372 421 446 421 q 243 475 296 421 l 243 310 q 372 282 304 282 q 597 375 504 282 q 690 600 690 468 q 597 826 690 733 q 551 865 575 849 l 551 600 z "},"Q":{"ha":1046,"x_min":54,"x_max":976,"o":"m 524 922 q 842 788 710 919 q 976 461 976 653 q 888 189 976 310 l 688 189 q 838 461 838 283 q 743 689 838 594 q 524 783 651 781 l 524 922 m 474 781 q 288 689 367 768 q 193 461 193 594 q 288 233 193 328 q 515 139 382 139 l 893 139 l 893 0 l 515 0 q 190 135 325 0 q 54 461 54 271 q 190 788 54 653 q 474 921 310 907 l 474 781 z "},"R":{"ha":785,"x_min":64,"x_max":707,"o":"m 393 910 q 313 922 356 922 q 137 849 210 922 q 64 672 64 776 l 64 0 l 203 0 l 203 672 q 235 751 203 718 q 313 783 267 783 q 392 751 358 783 q 393 749 392 750 l 393 910 m 424 672 q 391 595 424 628 q 313 563 358 563 l 253 563 l 253 432 l 421 432 q 524 389 482 432 q 567 286 567 346 l 567 0 l 707 0 l 706 286 q 657 445 706 374 q 529 549 608 517 q 563 672 563 607 q 490 850 563 776 q 424 897 460 879 l 424 672 z "},"S":{"ha":668,"x_min":67,"x_max":615,"o":"m 456 667 q 422 747 456 714 q 340 781 389 781 q 260 747 293 781 q 226 667 226 714 q 260 585 226 618 q 340 551 293 551 q 535 471 454 551 q 615 276 615 390 q 535 82 615 163 q 340 1 454 1 q 147 82 226 1 q 67 276 67 163 l 206 276 q 245 181 206 221 q 340 140 285 140 q 437 181 397 140 q 476 276 476 221 q 437 373 476 333 q 340 413 397 413 q 162 487 236 413 q 88 667 88 561 q 162 845 88 771 q 340 919 236 919 q 520 845 446 919 q 594 667 594 771 l 456 667 z "},"T":{"ha":504,"x_min":54,"x_max":560,"o":"m 54 924 l 303 924 q 351 903 331 924 q 372 854 372 882 l 372 0 l 233 0 l 233 785 l 54 785 l 54 924 m 408 924 l 560 924 l 560 785 l 408 785 l 408 924 z "},"U":{"ha":804,"x_min":71,"x_max":719,"o":"m 210 324 q 265 193 210 247 q 396 139 319 139 q 526 193 472 139 q 581 324 581 247 l 581 921 l 719 921 l 719 324 q 625 94 719 189 q 396 0 531 0 q 167 94 263 0 q 71 324 71 189 l 71 921 l 210 921 l 210 324 z "},"V":{"ha":738,"x_min":36,"x_max":781,"o":"m 183 921 l 408 286 l 633 921 l 781 921 l 474 56 q 408 -3 453 -3 q 343 56 364 -3 l 36 921 l 183 921 z "},"W":{"ha":1144,"x_min":36,"x_max":1188,"o":"m 185 924 l 410 289 l 635 924 l 782 924 l 475 58 q 410 0 454 0 q 343 58 364 0 l 36 924 l 185 924 m 713 582 l 815 289 l 1042 924 l 1188 924 l 881 58 q 815 0 860 0 q 750 58 771 0 l 638 376 l 713 582 z "},"X":{"ha":857,"x_min":43,"x_max":797,"o":"m 208 921 l 467 493 q 472 460 472 483 q 467 428 472 438 l 208 0 l 43 0 l 322 460 l 43 921 l 208 921 m 433 326 l 632 0 l 797 0 l 511 460 l 433 326 m 781 922 l 617 922 l 426 608 l 511 475 l 781 922 z "},"Y":{"ha":688,"x_min":26,"x_max":764,"o":"m 192 921 l 450 493 q 456 460 456 483 q 450 428 456 438 l 192 0 l 26 0 l 304 460 l 26 921 l 192 921 m 764 922 l 600 922 l 410 608 l 494 475 l 764 922 z "},"Z":{"ha":792,"x_min":32,"x_max":746,"o":"m 33 924 l 671 924 q 746 865 746 924 q 728 814 746 839 l 242 139 l 744 139 l 744 0 l 107 0 q 32 58 32 0 q 50 110 32 85 l 536 785 l 33 785 l 33 924 z "},"[":{"ha":386,"x_min":75,"x_max":325,"o":"m 325 785 l 214 785 l 214 140 l 325 140 l 325 1 l 144 1 q 96 22 117 1 q 75 71 75 43 l 75 854 q 96 903 75 882 q 144 924 117 924 l 325 924 l 325 785 z "},"\\":{"ha":796,"x_min":53,"x_max":771,"o":"m 771 197 l 53 915 l 53 719 l 771 0 l 771 197 z "},"]":{"ha":414,"x_min":75,"x_max":325,"o":"m 75 785 l 186 785 l 186 140 l 75 140 l 75 1 l 256 1 q 304 22 283 1 q 325 71 325 43 l 325 854 q 304 903 325 882 q 256 924 283 924 l 75 924 l 75 785 z "},"^":{"ha":0,"x_min":225,"x_max":567,"o":"m 225 736 l 343 857 q 396 888 372 888 q 453 853 419 888 l 567 736 l 431 736 l 396 771 l 361 736 l 225 736 z "},"_":{"ha":935,"x_min":76,"x_max":839,"o":"m 76 139 l 839 139 l 839 0 l 76 0 l 76 139 z "},"`":{"ha":0,"x_min":268,"x_max":724,"o":"m 468 922 l 724 663 l 528 663 l 268 922 l 468 922 z "},"a":{"ha":775,"x_min":64,"x_max":701,"o":"m 240 604 q 383 638 306 638 q 608 544 515 638 q 701 319 701 451 l 701 0 l 563 0 l 563 319 q 510 446 563 393 q 383 499 457 499 q 256 446 308 499 q 240 429 247 438 l 240 604 m 203 319 q 256 192 203 244 q 383 139 308 139 q 511 193 458 139 l 513 28 q 383 0 450 0 q 158 93 251 0 q 64 319 64 186 q 158 544 64 451 q 203 582 179 565 l 203 319 z "},"b":{"ha":728,"x_min":54,"x_max":692,"o":"m 507 28 q 372 0 446 0 q 147 93 240 0 q 54 319 54 186 l 54 922 l 193 922 l 193 319 q 245 192 193 244 q 372 139 297 139 q 500 192 447 139 q 507 199 504 196 l 507 28 m 546 268 q 553 319 553 292 q 500 446 553 393 q 372 499 447 499 q 243 444 297 499 l 243 610 q 372 638 304 638 q 598 544 504 638 q 692 319 692 451 q 599 93 692 186 q 546 50 574 68 l 546 268 z "},"c":{"ha":415,"x_min":60,"x_max":379,"o":"m 379 499 q 251 446 304 499 q 199 319 199 393 q 251 192 199 244 q 379 139 304 139 l 379 0 q 153 93 247 0 q 60 319 60 186 q 153 544 60 451 q 379 638 247 638 l 379 499 z "},"d":{"ha":767,"x_min":54,"x_max":692,"o":"m 231 32 q 372 0 294 0 q 598 93 504 0 q 692 319 692 186 l 692 922 l 553 922 l 553 319 q 500 192 553 244 q 372 139 447 139 q 246 192 297 139 q 231 208 238 200 l 231 32 m 193 319 q 245 446 193 393 q 372 499 297 499 q 501 444 449 499 l 501 610 q 372 638 440 638 q 147 544 240 638 q 54 319 54 451 q 147 93 54 186 q 193 54 169 71 l 193 319 z "},"e":{"ha":758,"x_min":53,"x_max":690,"o":"m 353 497 q 244 446 290 492 q 192 319 192 393 q 244 192 192 244 q 372 139 297 139 q 500 193 447 139 l 501 28 q 372 0 439 0 q 147 93 240 0 q 53 319 53 186 q 147 544 53 451 q 353 638 233 631 l 353 497 m 396 636 q 597 544 513 629 q 690 319 690 451 q 624 251 690 251 l 243 251 l 243 390 l 496 390 q 522 411 522 390 q 519 422 522 417 q 396 497 476 489 l 396 636 z "},"f":{"ha":438,"x_min":67,"x_max":385,"o":"m 385 783 q 258 731 311 783 q 206 603 206 678 l 206 600 l 385 600 l 385 461 l 206 461 l 206 0 l 67 0 l 67 603 q 160 829 67 736 q 385 922 253 922 l 385 783 z "},"g":{"ha":767,"x_min":56,"x_max":693,"o":"m 194 322 q 247 196 194 249 q 375 143 300 143 q 503 197 450 143 l 504 32 q 375 4 442 4 q 149 97 243 4 q 56 322 56 190 q 150 549 56 456 q 194 586 171 569 l 194 322 m 236 611 q 375 642 300 642 q 600 549 507 642 q 693 322 693 456 l 693 42 q 600 -185 693 -92 q 375 -278 507 -278 q 246 -250 307 -278 l 246 -85 q 375 -139 299 -139 q 501 -86 449 -139 q 554 42 554 -33 l 554 322 q 501 450 554 397 q 375 503 449 503 q 247 450 300 503 q 236 438 242 444 l 236 611 z "},"h":{"ha":769,"x_min":58,"x_max":697,"o":"m 58 922 l 197 922 l 197 0 l 58 0 l 58 922 m 557 0 l 557 319 q 504 446 557 393 q 378 499 451 499 q 249 444 301 499 l 249 610 q 378 638 310 638 q 603 544 510 638 q 696 319 697 451 l 693 0 l 557 0 z "},"i":{"ha":301,"x_min":76,"x_max":215,"o":"m 215 642 l 215 0 l 76 0 l 76 642 l 215 642 z "},"j":{"ha":583,"x_min":56,"x_max":504,"o":"m 504 640 l 504 42 q 410 -185 504 -92 q 185 -278 317 -278 q 56 -250 117 -278 l 56 -85 q 185 -139 110 -139 q 313 -86 260 -139 q 365 42 365 -33 l 365 640 l 504 640 z "},"k":{"ha":733,"x_min":57,"x_max":700,"o":"m 565 761 q 472 535 565 628 q 246 442 378 442 l 246 581 q 374 633 321 581 q 426 761 426 686 l 565 761 m 694 89 l 690 0 l 554 0 l 556 89 q 503 217 557 164 q 375 269 450 269 q 247 215 300 269 l 246 381 q 375 408 308 408 q 605 313 510 408 q 694 89 700 218 m 196 0 l 57 0 l 57 922 l 196 922 l 196 0 z "},"l":{"ha":306,"x_min":76,"x_max":215,"o":"m 76 922 l 215 922 l 215 0 l 76 0 l 76 922 z "},"m":{"ha":1150,"x_min":72,"x_max":1064,"o":"m 72 642 l 211 642 l 211 0 l 72 0 l 72 642 m 569 0 l 571 319 q 518 446 571 393 q 390 499 465 499 q 263 444 315 499 l 261 610 q 390 638 324 638 q 616 544 522 638 q 710 319 710 451 l 710 0 l 569 0 m 924 0 l 925 319 q 872 446 925 393 q 744 499 819 499 q 711 494 729 499 q 615 610 674 564 q 744 638 678 638 q 970 544 876 638 q 1064 319 1064 451 l 1064 0 l 924 0 z "},"n":{"ha":796,"x_min":72,"x_max":711,"o":"m 72 642 l 211 642 l 211 0 l 72 0 l 72 642 m 569 0 l 571 319 q 518 446 571 393 q 390 499 465 499 q 263 444 315 499 l 261 610 q 390 638 324 638 q 617 544 522 638 q 710 319 711 451 l 706 0 l 569 0 z "},"o":{"ha":768,"x_min":60,"x_max":694,"o":"m 360 494 q 251 444 297 489 q 199 318 199 392 q 251 192 199 243 q 360 140 297 146 l 360 0 q 153 93 239 7 q 60 318 60 186 q 153 542 60 449 q 360 635 239 628 l 360 494 m 404 140 q 504 192 461 149 q 556 318 556 243 q 504 444 556 392 q 404 494 461 486 l 404 633 q 603 542 519 625 q 694 318 694 449 q 603 93 694 186 q 404 1 519 10 l 404 140 z "},"p":{"ha":758,"x_min":53,"x_max":690,"o":"m 515 610 q 372 642 451 642 q 147 549 240 642 q 53 322 53 456 l 53 -278 l 192 -278 l 192 322 q 244 450 192 397 q 372 503 297 503 q 499 450 446 503 q 515 431 508 440 l 515 610 m 551 322 q 499 196 551 249 q 372 143 446 143 q 243 197 296 143 l 243 32 q 372 4 304 4 q 597 97 504 4 q 690 322 690 190 q 597 549 690 456 q 551 588 575 571 l 551 322 z "},"q":{"ha":764,"x_min":53,"x_max":690,"o":"m 225 607 q 372 642 292 642 q 597 549 504 642 q 690 322 690 456 l 690 -278 l 551 -278 l 551 322 q 499 450 551 397 q 372 503 446 503 q 244 450 297 503 q 225 428 233 439 l 225 607 m 192 322 q 244 196 192 249 q 372 143 297 143 q 500 197 447 143 l 501 32 q 372 4 440 4 q 147 97 240 4 q 53 322 53 190 q 147 549 53 456 q 192 586 168 569 l 192 322 z "},"r":{"ha":721,"x_min":57,"x_max":694,"o":"m 375 499 q 247 444 300 499 l 246 610 q 375 638 307 638 q 601 544 507 638 q 694 319 694 451 l 556 319 q 503 446 556 393 q 375 499 450 499 m 196 0 l 57 0 l 57 642 l 196 642 l 196 0 z "},"s":{"ha":521,"x_min":68,"x_max":468,"o":"m 315 447 q 301 481 315 467 q 268 494 288 494 q 235 481 249 494 q 221 447 221 467 q 235 414 221 428 q 268 400 249 400 q 410 341 351 400 q 468 200 468 282 q 410 58 468 117 q 268 0 351 0 q 127 58 186 0 q 68 200 68 117 l 207 200 q 225 157 207 175 q 268 139 243 139 q 311 157 293 139 q 329 200 329 175 q 311 243 329 225 q 268 261 293 261 q 137 315 192 261 q 82 447 82 369 q 137 578 82 524 q 268 633 192 633 q 400 578 346 633 q 454 447 454 524 l 315 447 z "},"t":{"ha":443,"x_min":69,"x_max":388,"o":"m 388 139 q 261 192 314 139 q 208 319 208 244 l 208 517 l 388 517 l 388 642 l 208 642 l 208 922 l 69 922 l 69 319 q 163 93 69 186 q 388 0 256 0 l 388 139 z "},"u":{"ha":797,"x_min":71,"x_max":710,"o":"m 710 0 l 571 0 l 571 642 l 710 642 l 710 0 m 213 642 l 211 322 q 264 196 211 249 q 392 143 317 143 q 519 197 467 143 l 521 32 q 392 4 458 4 q 165 97 260 4 q 72 322 71 190 l 76 642 l 213 642 z "},"v":{"ha":750,"x_min":63,"x_max":674,"o":"m 201 638 l 201 335 l 368 171 l 535 335 l 535 638 l 674 638 l 674 306 q 665 280 674 300 q 653 256 657 260 l 468 68 q 368 6 406 6 q 268 68 331 6 l 83 256 q 71 280 79 260 q 63 306 63 300 l 63 638 l 201 638 z "},"w":{"ha":1222,"x_min":63,"x_max":1146,"o":"m 201 638 l 201 335 l 368 171 l 535 335 l 535 638 l 674 638 l 674 306 q 665 280 674 300 q 653 256 657 260 l 468 68 q 368 6 406 6 q 268 68 331 6 l 83 256 q 71 280 79 260 q 63 306 63 300 l 63 638 l 201 638 m 706 303 l 840 171 l 1007 335 l 1007 638 l 1146 638 l 1146 306 q 1138 280 1146 300 q 1125 256 1129 260 l 940 68 q 840 6 878 6 q 760 50 808 6 q 629 182 744 64 l 683 240 q 706 303 701 272 z "},"x":{"ha":729,"x_min":53,"x_max":664,"o":"m 664 613 q 643 563 664 594 q 551 469 613 532 q 458 375 489 406 q 358 313 396 313 q 257 375 319 313 q 165 469 226 406 q 72 563 103 532 q 53 613 53 592 l 53 642 l 192 642 l 358 478 l 525 642 l 664 642 l 664 613 m 53 29 q 72 79 53 50 q 218 228 85 92 q 308 310 276 288 q 356 290 325 290 q 411 308 392 290 q 499 225 435 290 q 643 79 592 128 q 664 29 664 47 l 664 0 l 525 0 l 358 164 l 192 0 l 53 0 l 53 29 z "},"y":{"ha":779,"x_min":61,"x_max":699,"o":"m 699 42 q 606 -185 699 -92 q 381 -278 513 -278 q 251 -250 313 -278 l 251 -85 q 381 -139 304 -139 q 507 -86 454 -139 q 560 42 560 -33 l 560 640 l 699 640 l 699 42 m 510 32 q 381 4 449 4 q 155 97 249 4 q 61 322 61 190 l 61 640 l 200 640 l 200 322 q 253 196 200 249 q 381 143 306 143 q 508 197 456 143 l 510 32 z "},"z":{"ha":689,"x_min":49,"x_max":665,"o":"m 54 646 l 588 646 q 665 588 665 646 q 639 529 665 558 l 286 139 l 661 139 l 661 0 l 125 0 q 49 58 49 0 q 75 117 49 88 l 428 507 l 54 507 l 54 646 z "},"{":{"ha":681,"x_min":33,"x_max":632,"o":"m 176 397 l 33 397 l 33 536 l 178 536 q 334 811 206 701 q 632 921 463 921 l 632 782 q 405 688 499 782 q 311 461 311 593 q 405 233 311 328 q 632 139 499 139 l 632 0 q 329 114 458 0 q 176 397 200 228 z "},"|":{"ha":194,"x_min":-24,"x_max":115,"o":"m -24 922 l 115 922 l 115 0 l -24 0 l -24 922 z "},"}":{"ha":724,"x_min":85,"x_max":683,"o":"m 540 397 l 683 397 l 683 536 l 539 536 q 383 812 511 703 q 85 921 254 921 l 85 782 q 313 688 218 782 q 407 461 407 593 q 313 233 407 328 q 85 139 218 139 l 85 0 q 388 114 258 0 q 540 397 518 228 z "},"~":{"ha":0,"x_min":279,"x_max":706,"o":"m 297 717 q 279 785 279 750 q 330 887 279 846 q 443 921 381 928 q 544 847 510 913 q 563 836 550 836 q 585 857 585 836 q 582 868 585 863 l 688 924 q 706 856 706 889 q 655 753 706 794 q 542 718 604 711 q 440 792 476 726 q 422 803 435 803 q 399 783 399 803 q 403 772 399 778 l 297 717 z "},"Ä":{"ha":793,"x_min":65,"x_max":714,"o":"m 575 194 l 232 194 l 232 333 l 575 333 l 575 597 q 520 728 575 674 q 389 782 465 782 q 258 728 313 782 q 204 597 204 674 l 204 0 l 65 0 l 65 597 q 160 826 65 732 q 389 921 256 921 q 619 826 524 921 q 714 597 714 732 l 714 0 l 575 0 l 575 194 m 222 1031 q 244 1083 222 1061 q 296 1106 265 1106 q 349 1083 328 1106 q 371 1031 371 1061 q 349 978 371 1000 q 296 957 328 957 q 244 978 265 957 q 222 1031 222 1000 m 415 1031 q 437 1084 415 1063 q 489 1106 458 1106 q 542 1084 521 1106 q 564 1031 564 1063 q 542 978 564 1000 q 489 957 521 957 q 437 978 458 957 q 415 1031 415 1000 z "},"Å":{"ha":788,"x_min":63,"x_max":711,"o":"m 572 194 l 229 194 l 229 333 l 572 333 l 572 597 q 517 728 572 674 q 386 782 463 782 q 256 728 310 782 q 201 597 201 674 l 201 0 l 63 0 l 63 597 q 157 826 63 732 q 386 921 251 921 q 615 826 519 921 q 711 597 711 732 l 711 0 l 572 0 l 572 194 m 392 1104 q 444 1083 422 1104 q 467 1029 467 1061 q 444 977 467 999 q 392 956 422 956 q 339 977 361 956 q 317 1029 317 999 q 339 1083 317 1061 q 392 1104 361 1104 m 392 1049 q 371 1026 371 1049 q 392 1006 371 1006 q 413 1026 413 1006 q 392 1049 413 1049 z "},"Ç":{"ha":506,"x_min":43,"x_max":518,"o":"m 503 0 q 178 135 313 0 q 43 461 43 269 q 178 786 43 651 q 503 921 313 921 l 503 782 q 276 688 369 782 q 182 461 182 593 q 276 233 182 328 q 503 139 369 139 l 503 0 m 404 -25 q 485 -58 451 -25 q 518 -139 518 -92 q 485 -219 518 -186 q 404 -253 451 -253 l 404 -183 q 449 -139 449 -183 q 404 -94 449 -94 l 404 -25 z "},"É":{"ha":650,"x_min":60,"x_max":633,"o":"m 199 746 l 199 139 l 614 139 l 614 0 l 129 0 q 81 21 101 0 q 60 69 60 42 l 60 746 l 199 746 m 60 922 l 614 922 l 614 783 l 60 783 l 60 922 m 238 496 l 614 496 l 614 357 l 238 357 l 238 496 m 431 1108 l 169 982 l 369 982 l 633 1108 l 431 1108 z "},"Ñ":{"ha":799,"x_min":69,"x_max":715,"o":"m 69 0 l 69 842 q 88 900 69 878 q 132 922 106 922 q 199 876 172 922 l 540 292 l 540 19 l 208 586 l 208 0 l 69 0 m 715 922 l 715 0 l 576 0 l 576 922 l 715 922 m 243 940 q 231 989 231 964 q 306 1083 231 1060 q 342 1089 325 1089 q 421 1035 392 1089 q 433 1026 425 1026 q 450 1040 450 1026 q 447 1049 450 1044 l 524 1089 q 536 1039 536 1064 q 461 946 536 968 q 425 940 442 940 q 346 994 374 940 q 332 1003 342 1003 q 317 988 317 1003 q 318 979 317 983 l 243 940 z "},"Ö":{"ha":1031,"x_min":44,"x_max":972,"o":"m 508 928 q 836 792 700 928 q 972 464 972 656 q 836 136 972 272 q 508 0 700 0 q 180 136 315 0 q 44 464 44 272 q 180 792 44 656 q 508 928 315 928 m 508 789 q 278 694 374 789 q 183 464 183 599 q 278 234 183 329 q 508 139 374 139 q 738 234 643 139 q 833 464 833 329 q 738 694 833 599 q 508 789 643 789 m 314 1031 q 339 1085 314 1063 q 400 1107 364 1107 q 460 1085 435 1107 q 485 1031 485 1063 q 460 976 485 999 q 400 954 435 954 q 339 976 364 954 q 314 1031 314 999 m 535 1031 q 560 1085 535 1063 q 619 1107 585 1107 q 681 1085 656 1107 q 706 1031 706 1063 q 681 977 706 1000 q 619 954 656 954 q 560 977 585 954 q 535 1031 535 1000 z "},"Ü":{"ha":796,"x_min":67,"x_max":715,"o":"m 206 324 q 260 193 206 247 q 392 139 314 139 q 522 193 468 139 q 576 324 576 247 l 576 921 l 715 921 l 715 324 q 620 94 715 189 q 392 0 525 0 q 162 94 257 0 q 67 324 67 189 l 67 921 l 206 921 l 206 324 m 218 1028 q 240 1082 218 1060 q 294 1104 263 1104 q 349 1082 326 1104 q 371 1028 371 1060 q 349 973 371 996 q 294 950 326 950 q 240 973 263 950 q 218 1028 218 996 m 417 1028 q 440 1082 417 1060 q 494 1104 463 1104 q 549 1082 526 1104 q 571 1028 571 1060 q 549 974 571 996 q 494 951 526 951 q 440 974 463 951 q 417 1028 417 996 z "},"á":{"ha":757,"x_min":53,"x_max":690,"o":"m 229 604 q 372 638 294 638 q 597 544 504 638 q 690 319 690 451 l 690 0 l 551 0 l 551 319 q 499 446 551 393 q 372 499 446 499 q 244 446 297 499 q 229 429 236 438 l 229 604 m 192 319 q 244 192 192 244 q 372 139 297 139 q 500 193 447 139 l 501 28 q 372 0 439 0 q 147 93 240 0 q 53 319 53 186 q 147 544 53 451 q 192 582 168 565 l 192 319 m 418 914 l 163 654 l 358 654 l 618 914 l 418 914 z "},"à":{"ha":758,"x_min":53,"x_max":690,"o":"m 229 604 q 372 638 294 638 q 597 544 504 638 q 690 319 690 451 l 690 0 l 551 0 l 551 319 q 499 446 551 393 q 372 499 446 499 q 244 446 297 499 q 229 429 236 438 l 229 604 m 192 319 q 244 192 192 244 q 372 139 297 139 q 500 193 447 139 l 501 28 q 372 0 439 0 q 147 93 240 0 q 53 319 53 186 q 147 544 53 451 q 192 582 168 565 l 192 319 m 360 922 l 615 663 l 419 663 l 160 922 l 360 922 z "},"â":{"ha":761,"x_min":54,"x_max":692,"o":"m 231 604 q 374 638 296 638 q 599 544 506 638 q 692 319 692 451 l 692 0 l 553 0 l 553 319 q 500 446 553 393 q 374 499 447 499 q 246 446 299 499 q 231 429 238 438 l 231 604 m 193 319 q 246 192 193 244 q 374 139 299 139 q 501 193 449 139 l 503 28 q 374 0 440 0 q 148 93 242 0 q 54 319 54 186 q 149 544 54 451 q 193 582 169 565 l 193 319 m 215 740 l 333 861 q 386 892 363 892 q 443 857 410 892 l 557 740 l 421 740 l 386 775 l 351 740 l 215 740 z "},"ä":{"ha":743,"x_min":60,"x_max":697,"o":"m 236 604 q 379 638 301 638 q 604 544 511 638 q 697 319 697 451 l 697 0 l 558 0 l 558 319 q 506 446 558 393 q 379 499 453 499 q 251 446 304 499 q 236 429 243 438 l 236 604 m 199 319 q 251 192 199 244 q 379 139 304 139 q 507 193 454 139 l 508 28 q 379 0 446 0 q 153 93 247 0 q 60 319 60 186 q 154 544 60 451 q 199 582 175 565 l 199 319 z "},"ã":{"ha":768,"x_min":60,"x_max":697,"o":"m 236 604 q 379 638 301 638 q 604 544 511 638 q 697 319 697 451 l 697 0 l 558 0 l 558 319 q 506 446 558 393 q 379 499 453 499 q 251 446 304 499 q 236 429 243 438 l 236 604 m 199 319 q 251 192 199 244 q 379 139 304 139 q 507 193 454 139 l 508 28 q 379 0 446 0 q 153 93 247 0 q 60 319 60 186 q 154 544 60 451 q 199 582 175 565 l 199 319 m 167 717 q 149 785 149 750 q 199 887 149 846 q 313 921 250 928 q 414 847 379 913 q 432 836 419 836 q 454 857 454 836 q 451 868 454 863 l 557 924 q 575 856 575 889 q 524 753 575 794 q 411 718 474 711 q 310 792 346 726 q 292 803 304 803 q 268 783 268 803 q 272 772 268 778 l 167 717 z "},"å":{"ha":753,"x_min":51,"x_max":689,"o":"m 228 604 q 371 638 293 638 q 596 544 503 638 q 689 319 689 451 l 689 0 l 550 0 l 550 319 q 497 446 550 393 q 371 499 444 499 q 243 446 296 499 q 228 429 235 438 l 228 604 m 190 319 q 243 192 190 244 q 371 139 296 139 q 499 193 446 139 l 500 28 q 371 0 438 0 q 145 93 239 0 q 51 319 51 186 q 146 544 51 451 q 190 582 167 565 l 190 319 m 357 924 q 440 890 406 924 q 474 807 474 856 q 440 724 474 758 q 357 690 406 690 q 274 724 308 690 q 240 807 240 758 q 274 890 240 856 q 357 924 308 924 m 357 836 q 324 803 324 836 q 357 769 324 769 q 390 803 390 769 q 357 836 390 836 z "},"ç":{"ha":454,"x_min":56,"x_max":383,"o":"m 375 499 q 247 446 300 499 q 194 319 194 393 q 247 192 194 244 q 375 139 300 139 l 375 0 q 149 93 243 0 q 56 319 56 186 q 149 544 56 451 q 375 638 243 638 l 375 499 m 269 -22 q 350 -56 317 -22 q 383 -136 383 -89 q 350 -217 383 -183 q 269 -250 317 -250 l 269 -181 q 314 -136 314 -181 q 269 -92 314 -92 l 269 -22 z "},"é":{"ha":742,"x_min":46,"x_max":683,"o":"m 346 497 q 238 446 283 492 q 185 319 185 393 q 238 192 185 244 q 365 139 290 139 q 493 193 440 139 l 494 28 q 365 0 432 0 q 140 93 233 0 q 46 319 46 186 q 140 544 46 451 q 346 638 226 631 l 346 497 m 389 636 q 590 544 506 629 q 683 319 683 451 q 617 251 683 251 l 236 251 l 236 390 l 489 390 q 515 411 515 390 q 513 422 515 417 q 389 497 469 489 l 389 636 m 390 928 l 135 668 l 331 668 l 590 928 l 390 928 z "},"è":{"ha":742,"x_min":46,"x_max":683,"o":"m 346 497 q 238 446 283 492 q 185 319 185 393 q 238 192 185 244 q 365 139 290 139 q 493 193 440 139 l 494 28 q 365 0 432 0 q 140 93 233 0 q 46 319 46 186 q 140 544 46 451 q 346 638 226 631 l 346 497 m 389 636 q 590 544 506 629 q 683 319 683 451 q 617 251 683 251 l 236 251 l 236 390 l 489 390 q 515 411 515 390 q 513 422 515 417 q 389 497 469 489 l 389 636 m 329 917 l 585 657 l 389 657 l 129 917 l 329 917 z "},"ê":{"ha":718,"x_min":46,"x_max":683,"o":"m 346 497 q 238 446 283 492 q 185 319 185 393 q 238 192 185 244 q 365 139 290 139 q 493 193 440 139 l 494 28 q 365 0 432 0 q 140 93 233 0 q 46 319 46 186 q 140 544 46 451 q 346 638 226 631 l 346 497 m 389 636 q 590 544 506 629 q 683 319 683 451 q 617 251 683 251 l 236 251 l 236 390 l 489 390 q 515 411 515 390 q 513 422 515 417 q 389 497 469 489 l 389 636 m 204 749 l 322 869 q 375 900 351 900 q 432 865 399 900 l 546 749 l 410 749 l 375 783 l 340 749 l 204 749 z "},"ë":{"ha":726,"x_min":51,"x_max":689,"o":"m 351 497 q 243 446 289 492 q 190 319 190 393 q 243 192 190 244 q 371 139 296 139 q 499 193 446 139 l 500 28 q 371 0 438 0 q 145 93 239 0 q 51 319 51 186 q 146 544 51 451 q 351 638 232 631 l 351 497 m 394 636 q 596 544 511 629 q 689 319 689 451 q 622 251 689 251 l 242 251 l 242 390 l 494 390 q 521 411 521 390 q 518 422 521 417 q 394 497 475 489 l 394 636 z "},"í":{"ha":379,"x_min":50,"x_max":406,"o":"m 300 642 l 300 0 l 161 0 l 161 642 l 300 642 m 250 924 l 50 690 l 204 690 l 406 924 l 250 924 z "},"ì":{"ha":369,"x_min":50,"x_max":411,"o":"m 292 642 l 292 0 l 153 0 l 153 642 l 292 642 m 208 924 l 411 688 l 256 688 l 50 924 l 208 924 z "},"î":{"ha":318,"x_min":67,"x_max":279,"o":"m 243 642 l 243 0 l 104 0 l 104 642 l 243 642 m 67 761 l 140 892 q 174 925 160 925 q 208 888 188 925 l 279 761 l 194 761 l 174 799 l 151 761 l 67 761 z "},"ï":{"ha":367,"x_min":57,"x_max":374,"o":"m 289 642 l 289 0 l 150 0 l 150 642 l 289 642 m 57 836 q 78 890 57 868 q 126 913 99 913 q 176 890 156 913 q 196 836 196 868 q 176 782 196 804 q 126 760 156 760 q 78 782 99 760 q 57 836 57 804 m 236 836 q 256 891 236 868 q 306 914 276 914 q 353 891 333 914 q 374 836 374 868 q 353 782 374 804 q 306 760 333 760 q 256 782 276 760 q 236 836 236 804 z "},"ñ":{"ha":754,"x_min":65,"x_max":704,"o":"m 65 642 l 204 642 l 204 0 l 65 0 l 65 642 m 563 0 l 564 319 q 511 446 564 393 q 383 499 458 499 q 256 444 308 499 l 254 610 q 383 638 317 638 q 610 544 515 638 q 703 319 704 451 l 699 0 l 563 0 m 210 719 q 192 788 192 753 q 242 890 192 849 q 356 924 293 931 q 457 850 422 915 q 475 839 463 839 q 497 860 497 839 q 494 871 497 865 l 600 926 q 618 858 618 892 q 567 756 618 797 q 454 721 517 714 q 353 794 389 729 q 335 806 347 806 q 311 786 311 806 q 315 775 311 781 l 210 719 z "},"ó":{"ha":750,"x_min":50,"x_max":685,"o":"m 350 494 q 242 444 288 489 q 189 318 189 392 q 242 192 189 243 q 350 140 288 146 l 350 0 q 143 93 229 7 q 50 318 50 186 q 143 542 50 449 q 350 635 229 628 l 350 494 m 394 140 q 494 192 451 149 q 546 318 546 243 q 494 444 546 392 q 394 494 451 486 l 394 633 q 593 542 510 625 q 685 318 685 449 q 593 93 685 186 q 394 1 510 10 l 394 140 m 406 918 l 150 658 l 346 658 l 606 918 l 406 918 z "},"ò":{"ha":750,"x_min":50,"x_max":685,"o":"m 350 494 q 242 444 288 489 q 189 318 189 392 q 242 192 189 243 q 350 140 288 146 l 350 0 q 143 93 229 7 q 50 318 50 186 q 143 542 50 449 q 350 635 229 628 l 350 494 m 394 140 q 494 192 451 149 q 546 318 546 243 q 494 444 546 392 q 394 494 451 486 l 394 633 q 593 542 510 625 q 685 318 685 449 q 593 93 685 186 q 394 1 510 10 l 394 140 m 356 918 l 611 658 l 415 658 l 156 918 l 356 918 z "},"ô":{"ha":754,"x_min":53,"x_max":688,"o":"m 353 494 q 244 444 290 489 q 192 318 192 392 q 244 192 192 243 q 353 140 290 146 l 353 0 q 146 93 232 7 q 53 318 53 186 q 146 542 53 449 q 353 635 232 628 l 353 494 m 397 140 q 497 192 454 149 q 549 318 549 243 q 497 444 549 392 q 397 494 454 486 l 397 633 q 596 542 513 625 q 688 318 688 449 q 596 93 688 186 q 397 1 513 10 l 397 140 m 201 732 l 319 853 q 372 883 349 883 q 429 849 396 883 l 543 732 l 407 732 l 372 767 l 338 732 l 201 732 z "},"ö":{"ha":733,"x_min":56,"x_max":690,"o":"m 356 494 q 247 444 293 489 q 194 318 194 392 q 247 192 194 243 q 356 140 293 146 l 356 0 q 149 93 235 7 q 56 318 56 186 q 149 542 56 449 q 356 635 235 628 l 356 494 m 400 140 q 500 192 457 149 q 551 318 551 243 q 500 444 551 392 q 400 494 457 486 l 400 633 q 599 542 515 625 q 690 318 690 449 q 599 93 690 186 q 400 1 515 10 l 400 140 z "},"õ":{"ha":757,"x_min":54,"x_max":689,"o":"m 354 494 q 246 444 292 489 q 193 318 193 392 q 246 192 193 243 q 354 140 292 146 l 354 0 q 147 93 233 7 q 54 318 54 186 q 147 542 54 449 q 354 635 233 628 l 354 494 m 399 140 q 499 192 456 149 q 550 318 550 243 q 499 444 550 392 q 399 494 456 486 l 399 633 q 597 542 514 625 q 689 318 689 449 q 597 93 689 186 q 399 1 514 10 l 399 140 m 169 706 q 151 774 151 739 q 202 876 151 835 q 315 910 253 917 q 417 836 382 901 q 435 825 422 825 q 457 846 457 825 q 454 857 457 851 l 560 913 q 578 844 578 878 q 527 742 578 783 q 414 707 476 700 q 313 781 349 715 q 294 792 307 792 q 271 772 271 792 q 275 761 271 767 l 169 706 z "},"ú":{"ha":756,"x_min":54,"x_max":715,"o":"m 693 0 l 554 0 l 554 642 l 693 642 l 693 0 m 196 642 l 194 322 q 247 196 194 249 q 375 143 300 143 q 503 197 450 143 l 504 32 q 375 4 442 4 q 149 97 243 4 q 56 322 54 190 l 60 642 l 196 642 m 515 915 l 260 656 l 456 656 l 715 915 l 515 915 z "},"ù":{"ha":775,"x_min":57,"x_max":706,"o":"m 706 0 l 567 0 l 567 642 l 706 642 l 706 0 m 208 642 l 207 322 q 260 196 207 249 q 388 143 313 143 q 515 197 463 143 l 517 32 q 388 4 454 4 q 161 97 256 4 q 68 322 67 190 l 72 642 l 208 642 m 257 919 l 513 660 l 317 660 l 57 919 l 257 919 z "},"û":{"ha":776,"x_min":63,"x_max":701,"o":"m 701 0 l 563 0 l 563 642 l 701 642 l 701 0 m 204 642 l 203 322 q 256 196 203 249 q 383 143 308 143 q 511 197 458 143 l 513 32 q 383 4 450 4 q 157 97 251 4 q 64 322 63 190 l 68 642 l 204 642 m 217 736 l 335 857 q 388 888 364 888 q 444 853 411 888 l 558 736 l 422 736 l 388 771 l 353 736 l 217 736 z "},"ü":{"ha":783,"x_min":67,"x_max":706,"o":"m 706 0 l 567 0 l 567 642 l 706 642 l 706 0 m 208 642 l 207 322 q 260 196 207 249 q 388 143 313 143 q 515 197 463 143 l 517 32 q 388 4 454 4 q 161 97 256 4 q 68 322 67 190 l 72 642 l 208 642 z "},"†":{"ha":372,"x_min":60,"x_max":414,"o":"m 289 868 l 289 224 l 190 224 l 190 868 l 289 868 m 60 719 l 414 719 l 414 628 l 60 628 l 60 719 z "},"°":{"ha":397,"x_min":69,"x_max":346,"o":"m 208 915 q 306 875 265 915 q 346 776 346 835 q 306 678 346 719 q 208 638 265 638 q 110 678 150 638 q 69 776 69 719 q 110 875 69 835 q 208 915 150 915 m 208 811 q 168 772 168 811 q 208 732 168 732 q 247 772 247 732 q 208 811 247 811 z "},"¢":{"ha":453,"x_min":60,"x_max":382,"o":"m 379 746 q 251 693 304 746 q 199 567 199 640 q 251 439 199 492 q 379 386 304 386 l 379 247 q 153 340 247 247 q 60 567 60 433 q 153 792 60 699 q 379 885 247 885 l 379 746 m 244 915 l 382 915 l 382 751 l 244 751 l 244 915 m 243 382 l 381 382 l 381 218 l 243 218 l 243 382 z "},"£":{"ha":500,"x_min":57,"x_max":494,"o":"m 196 139 l 494 139 l 494 0 l 57 0 l 57 603 q 150 829 57 736 q 375 922 243 922 l 375 783 q 249 731 301 783 q 196 603 196 678 l 196 600 l 375 600 l 375 461 l 196 461 l 196 139 z "},"§":{"ha":524,"x_min":68,"x_max":469,"o":"m 315 707 q 301 740 315 726 q 268 754 288 754 q 235 740 249 754 q 221 707 221 726 q 235 674 221 688 q 268 660 249 660 q 410 601 351 660 q 468 460 468 542 q 410 318 468 376 q 268 260 351 260 q 127 318 186 260 q 68 460 68 376 l 207 460 q 225 417 207 435 q 268 399 243 399 q 311 417 293 399 q 329 460 329 435 q 311 503 329 485 q 268 521 293 521 q 137 575 192 521 q 82 707 82 629 q 137 838 82 783 q 268 893 192 893 q 400 838 346 893 q 454 707 454 783 l 315 707 m 222 214 q 236 181 222 194 q 269 167 250 167 q 303 181 289 167 q 317 214 317 194 q 303 247 317 233 q 269 261 289 261 q 128 319 188 261 q 69 461 69 378 q 128 602 69 543 q 269 661 188 661 q 411 602 353 661 q 469 461 469 543 l 331 461 q 313 504 331 486 q 269 522 294 522 q 226 504 244 522 q 208 461 208 486 q 226 418 208 436 q 269 400 244 400 q 401 346 347 400 q 456 214 456 292 q 401 82 456 136 q 269 28 347 28 q 138 82 193 28 q 83 214 83 136 l 222 214 z "},"•":{"ha":565,"x_min":67,"x_max":486,"o":"m 67 472 q 128 621 67 560 q 276 682 189 682 q 424 621 363 682 q 486 472 486 560 q 424 324 486 385 q 276 263 363 263 q 128 324 189 263 q 67 472 67 385 z "},"¶":{"ha":771,"x_min":58,"x_max":696,"o":"m 506 310 q 376 282 444 282 q 151 375 244 282 q 58 600 58 468 q 151 826 58 733 q 376 919 244 919 q 603 826 510 919 q 696 600 696 733 l 696 0 l 557 0 l 557 600 q 504 728 557 675 q 376 781 451 781 q 250 728 303 781 q 197 600 197 675 q 250 474 197 526 q 376 421 303 421 q 506 475 453 421 l 506 310 m 368 865 l 507 865 l 507 -6 l 368 -6 l 368 865 z "},"ß":{"ha":753,"x_min":61,"x_max":704,"o":"m 704 286 q 620 84 704 168 q 418 0 536 0 l 311 0 l 311 139 q 479 154 435 139 q 565 286 565 185 q 479 417 565 386 q 311 432 433 433 l 311 563 q 389 595 356 563 q 422 672 422 628 q 390 751 422 718 q 311 783 357 783 q 233 751 265 783 q 200 672 200 718 l 200 0 l 61 0 l 61 672 q 135 849 61 776 q 311 922 208 922 q 488 849 414 922 q 561 672 561 776 q 528 549 561 607 q 656 444 607 517 q 704 286 704 371 z "},"®":{"ha":844,"x_min":58,"x_max":772,"o":"m 589 300 l 588 407 q 501 504 586 478 q 517 550 517 526 q 481 616 517 589 q 394 643 446 643 q 307 616 343 643 q 271 550 271 589 l 271 300 l 340 300 l 340 550 q 394 592 340 592 q 449 550 449 592 q 433 522 449 533 q 394 510 417 510 l 364 510 l 364 461 l 447 461 q 499 445 478 461 q 519 407 519 429 l 519 300 l 589 300 m 415 818 q 668 713 564 818 q 772 460 772 608 q 668 208 772 313 q 415 103 564 103 q 163 208 267 103 q 58 460 58 313 q 163 713 58 608 q 415 818 267 818 m 415 711 q 238 638 311 711 q 165 460 165 564 q 238 283 165 357 q 415 210 311 210 q 592 283 519 210 q 665 460 665 357 q 592 638 665 564 q 415 711 519 711 z "},"©":{"ha":844,"x_min":58,"x_max":772,"o":"m 435 571 q 356 538 389 571 q 324 458 324 506 q 356 380 324 413 q 435 347 389 347 l 435 261 q 295 319 353 261 q 238 458 238 376 q 295 599 238 540 q 435 657 353 657 l 435 571 m 415 818 q 668 713 564 818 q 772 460 772 608 q 668 208 772 313 q 415 103 564 103 q 163 208 267 103 q 58 460 58 313 q 163 713 58 608 q 415 818 267 818 m 415 711 q 238 638 311 711 q 165 460 165 564 q 238 283 165 357 q 415 210 311 210 q 592 283 519 210 q 665 460 665 357 q 592 638 665 564 q 415 711 519 711 z "},"™":{"ha":676,"x_min":69,"x_max":594,"o":"m 69 914 l 175 914 q 204 882 204 914 l 204 494 l 146 494 l 146 851 l 69 851 l 69 914 m 219 914 l 285 914 l 285 851 l 219 851 l 219 914 m 340 499 l 340 874 q 354 908 340 908 q 406 858 371 908 q 457 781 422 835 l 535 892 l 535 804 q 485 731 526 792 q 458 706 468 706 q 431 729 447 706 q 383 799 431 729 l 383 499 l 340 499 m 594 910 l 594 499 l 551 499 l 551 910 l 594 910 z "},"´":{"ha":0,"x_min":183,"x_max":639,"o":"m 439 922 l 183 663 l 379 663 l 639 922 l 439 922 z "},"¨":{"ha":0,"x_min":190,"x_max":613,"o":"m 190 831 q 217 896 190 869 q 282 922 244 922 q 348 896 321 922 q 375 831 375 869 q 348 766 375 793 q 282 739 321 739 q 217 766 244 739 q 190 831 190 793 m 428 831 q 455 896 428 869 q 519 922 482 922 q 585 896 558 922 q 613 831 613 869 q 585 766 613 793 q 519 739 558 739 q 455 766 482 739 q 428 831 428 793 z "},"Æ":{"ha":1163,"x_min":63,"x_max":1126,"o":"m 711 746 l 711 139 l 1126 139 l 1126 0 l 642 0 q 593 21 614 0 q 572 69 572 42 l 572 746 l 711 746 m 572 922 l 1126 922 l 1126 783 l 572 783 l 572 922 m 750 496 l 1126 496 l 1126 357 l 750 357 l 750 496 m 531 714 q 518 728 525 721 q 386 782 463 782 q 255 728 308 782 q 201 597 201 674 l 201 0 l 63 0 l 63 597 q 157 826 63 732 q 386 921 251 921 q 531 888 464 921 l 531 714 m 564 868 q 615 826 590 850 q 711 597 711 732 l 711 0 l 572 0 l 572 194 l 229 194 l 229 333 l 572 333 l 572 597 q 564 653 572 626 l 564 868 z "},"Ø":{"ha":1060,"x_min":58,"x_max":986,"o":"m 522 928 q 851 792 715 928 q 986 464 986 656 q 851 136 986 272 q 522 0 715 0 q 194 136 331 0 q 58 464 58 272 q 194 792 58 656 q 522 928 331 928 m 522 789 q 292 694 388 789 q 197 464 197 599 q 292 234 197 329 q 522 139 388 139 q 752 234 657 139 q 847 464 847 329 q 752 694 847 599 q 522 789 657 789 m 164 203 l 882 921 l 882 724 l 164 6 l 164 203 z "},"±":{"ha":633,"x_min":56,"x_max":593,"o":"m 397 294 l 258 294 l 258 490 l 63 490 l 63 629 l 258 629 l 258 825 l 397 825 l 397 629 l 593 629 l 593 490 l 397 490 l 397 294 m 56 239 l 586 239 l 586 100 l 56 100 l 56 239 z "},"¥":{"ha":721,"x_min":46,"x_max":801,"o":"m 229 921 l 488 493 q 493 460 493 483 q 488 428 493 438 l 229 0 l 64 0 l 342 460 l 64 921 l 229 921 m 801 922 l 638 922 l 447 608 l 532 475 l 801 922 m 46 182 l 576 182 l 576 43 l 46 43 l 46 182 m 46 460 l 576 460 l 576 321 l 46 321 l 46 460 z "},"µ":{"ha":788,"x_min":63,"x_max":708,"o":"m 708 0 l 596 0 q 533 42 553 0 q 382 4 463 4 q 253 32 314 4 l 253 197 q 382 143 306 143 q 508 196 456 143 q 561 322 561 249 l 561 642 l 697 642 l 700 322 q 665 179 700 246 l 665 139 l 708 139 l 708 0 m 201 -278 l 63 -278 l 63 642 l 201 642 l 201 -278 z "},"ª":{"ha":494,"x_min":71,"x_max":438,"o":"m 75 497 l 431 497 l 431 431 l 75 431 l 75 497 m 328 575 q 254 558 293 558 q 124 613 178 558 q 71 743 71 667 q 124 872 71 818 q 254 926 178 926 q 384 872 331 926 q 438 743 438 818 l 438 558 l 357 558 l 357 743 q 327 816 357 786 q 254 846 297 846 q 181 816 211 846 q 150 743 150 786 q 181 669 150 700 q 254 639 211 639 q 328 669 297 639 l 328 575 z "},"º":{"ha":488,"x_min":68,"x_max":432,"o":"m 250 922 q 378 869 325 922 q 432 740 432 817 q 378 613 432 665 q 250 560 325 560 q 122 613 175 560 q 68 740 68 665 q 122 869 68 817 q 250 922 175 922 m 250 843 q 178 813 208 843 q 147 740 147 783 q 178 669 147 699 q 250 639 208 639 q 323 669 293 639 q 353 740 353 699 q 323 813 353 783 q 250 843 293 843 m 71 497 l 426 497 l 426 431 l 71 431 l 71 497 z "},"æ":{"ha":1254,"x_min":53,"x_max":1189,"o":"m 851 497 q 743 446 789 492 q 690 319 690 393 q 743 192 690 244 q 871 139 796 139 q 999 193 946 139 l 1000 28 q 871 0 938 0 q 645 93 739 0 q 551 319 551 186 q 646 544 551 451 q 851 638 732 631 l 851 497 m 894 636 q 1096 544 1011 629 q 1189 319 1189 451 q 1122 251 1189 251 l 742 251 l 742 390 l 994 390 q 1021 411 1021 390 q 1018 422 1021 417 q 894 497 975 489 l 894 636 m 229 604 q 372 638 294 638 q 597 544 504 638 q 690 319 690 451 l 690 0 l 551 0 l 551 319 q 499 446 551 393 q 372 499 446 499 q 244 446 297 499 q 229 429 236 438 l 229 604 m 192 319 q 244 192 192 244 q 372 139 297 139 q 500 193 447 139 l 501 28 q 372 0 439 0 q 147 93 240 0 q 53 319 53 186 q 147 544 53 451 q 192 582 168 565 l 192 319 z "},"ø":{"ha":775,"x_min":63,"x_max":697,"o":"m 381 635 q 604 542 511 635 q 697 318 697 449 q 604 93 697 186 q 381 0 511 0 q 156 93 249 0 q 63 318 63 186 q 156 542 63 449 q 381 635 249 635 m 381 496 q 254 444 307 496 q 201 318 201 392 q 254 191 201 243 q 381 139 307 139 q 506 191 454 139 q 558 318 558 243 q 506 444 558 392 q 381 496 454 496 m 124 133 l 650 646 l 650 506 l 124 -8 l 124 133 z "},"¿":{"ha":722,"x_min":46,"x_max":689,"o":"m 231 446 q 185 326 185 393 q 240 198 185 253 q 368 143 294 143 q 495 198 440 143 q 550 325 550 253 l 689 325 q 560 69 689 165 q 368 4 474 4 q 111 133 207 4 q 46 326 46 219 q 126 538 46 444 l 274 708 l 457 708 l 231 446 m 457 835 q 431 769 457 796 q 365 742 404 742 q 301 769 328 742 q 274 835 274 796 q 301 899 274 872 q 365 926 328 926 q 431 899 404 926 q 457 835 457 872 z "},"¡":{"ha":310,"x_min":72,"x_max":256,"o":"m 231 6 l 92 6 l 92 678 l 231 678 l 231 6 m 256 836 q 228 772 256 799 q 164 744 201 744 q 99 772 125 744 q 72 836 72 799 q 99 901 72 875 q 164 928 125 928 q 228 901 201 928 q 256 836 256 875 z "},"¬":{"ha":1042,"x_min":31,"x_max":953,"o":"m 31 429 l 814 429 l 814 14 l 953 14 l 953 499 q 932 547 953 526 q 883 568 911 568 l 31 568 l 31 429 z "},"ƒ":{"ha":531,"x_min":47,"x_max":546,"o":"m 546 783 q 419 731 472 783 q 367 603 367 678 l 367 531 l 479 531 l 479 392 l 367 392 l 367 319 q 273 93 367 186 q 47 0 179 0 l 47 139 q 175 192 122 139 q 228 319 228 244 l 228 392 l 118 392 l 118 531 l 228 531 l 228 603 q 321 829 228 736 q 546 922 414 922 l 546 783 z "},"«":{"ha":536,"x_min":68,"x_max":446,"o":"m 219 182 l 99 300 q 68 353 68 329 q 103 411 68 378 l 219 524 l 218 388 l 185 353 l 219 319 l 219 182 m 446 182 l 325 300 q 294 353 294 329 q 329 411 294 378 l 446 524 l 444 388 l 411 353 l 446 319 l 446 182 z "},"»":{"ha":465,"x_min":-6,"x_max":389,"o":"m -6 182 l 115 300 q 146 353 146 329 q 111 411 146 378 l -6 524 l -6 388 l 29 353 l -6 319 l -6 182 m 238 179 l 358 297 q 389 350 389 326 q 354 408 389 375 l 238 521 l 238 385 l 272 350 l 238 317 l 238 179 z "},"…":{"ha":844,"x_min":64,"x_max":761,"o":"m 64 92 q 91 157 64 131 q 156 183 118 183 q 222 157 194 183 q 249 92 249 131 q 222 27 249 54 q 156 0 194 0 q 91 27 118 0 q 64 92 64 54 m 325 92 q 352 157 325 131 q 417 183 379 183 q 483 157 456 183 q 510 92 510 131 q 483 27 510 54 q 417 0 456 0 q 352 27 379 0 q 325 92 325 54 m 576 93 q 603 158 576 132 q 668 185 631 185 q 734 158 707 185 q 761 93 761 132 q 734 28 761 56 q 668 1 707 1 q 603 28 631 1 q 576 93 576 56 z "}," ":{"ha":501,"x_min":0,"x_max":0,"o":"z "},"À":{"ha":789,"x_min":64,"x_max":713,"o":"m 574 194 l 231 194 l 231 333 l 574 333 l 574 597 q 519 728 574 674 q 388 782 464 782 q 256 728 310 782 q 203 597 203 674 l 203 0 l 64 0 l 64 597 q 158 826 64 732 q 388 921 253 921 q 617 826 521 921 q 713 597 713 732 l 713 0 l 574 0 l 574 194 m 358 1104 l 576 971 l 410 971 l 188 1104 l 358 1104 z "},"Ã":{"ha":792,"x_min":65,"x_max":714,"o":"m 575 194 l 232 194 l 232 333 l 575 333 l 575 597 q 520 728 575 674 q 389 782 465 782 q 258 728 313 782 q 204 597 204 674 l 204 0 l 65 0 l 65 597 q 160 826 65 732 q 389 921 254 921 q 618 826 522 921 q 714 597 714 732 l 714 0 l 575 0 l 575 194 m 232 968 q 215 1015 215 992 q 307 1106 215 1083 q 350 1111 331 1111 q 446 1060 411 1111 q 461 1051 451 1051 q 481 1067 481 1051 q 478 1074 481 1069 l 569 1111 q 585 1064 585 1088 q 493 974 585 996 q 451 968 471 968 q 354 1021 390 968 q 339 1029 350 1029 q 319 1014 319 1029 q 322 1007 319 1011 l 232 968 z "},"Õ":{"ha":1031,"x_min":44,"x_max":972,"o":"m 508 928 q 836 792 700 928 q 972 464 972 656 q 836 136 972 272 q 508 0 700 0 q 180 136 315 0 q 44 464 44 272 q 180 792 44 656 q 508 928 315 928 m 508 789 q 278 694 374 789 q 183 464 183 599 q 278 234 183 329 q 508 139 374 139 q 738 234 643 139 q 833 464 833 329 q 738 694 833 599 q 508 789 643 789 m 361 953 q 347 1003 347 978 q 424 1096 347 1074 q 458 1101 443 1101 q 538 1047 510 1101 q 551 1039 542 1039 q 567 1054 567 1039 q 565 1063 567 1058 l 640 1101 q 653 1053 653 1078 q 578 958 653 981 q 543 953 560 953 q 463 1007 492 953 q 450 1015 458 1015 q 435 1001 435 1015 q 436 993 435 997 l 361 953 z "},"Œ":{"ha":1438,"x_min":51,"x_max":1401,"o":"m 986 746 l 986 139 l 1401 139 l 1401 0 l 917 0 q 868 21 889 0 q 847 69 847 42 l 847 746 l 986 746 m 847 922 l 1401 922 l 1401 783 l 847 783 l 847 922 m 1025 496 l 1401 496 l 1401 357 l 1025 357 l 1025 496 m 558 142 q 746 235 665 154 q 840 464 840 329 q 746 694 840 599 q 558 786 665 774 l 558 926 q 844 792 724 913 q 979 464 979 656 q 844 136 979 272 q 558 1 724 15 l 558 142 m 488 788 q 286 694 372 779 q 190 464 190 599 q 286 235 190 329 q 488 140 372 149 l 488 1 q 188 136 314 10 q 51 464 51 272 q 188 792 51 656 q 488 926 314 918 l 488 788 z "},"œ":{"ha":1250,"x_min":53,"x_max":1186,"o":"m 849 497 q 740 446 786 492 q 688 319 688 393 q 740 192 688 244 q 868 139 793 139 q 996 193 943 139 l 997 28 q 868 0 935 0 q 642 93 736 0 q 549 319 549 186 q 643 544 549 451 q 849 638 729 631 l 849 497 m 892 636 q 1093 544 1008 629 q 1186 319 1186 451 q 1119 251 1186 251 l 739 251 l 739 390 l 992 390 q 1018 411 1018 390 q 1015 422 1018 417 q 892 497 972 489 l 892 636 m 353 494 q 244 444 290 489 q 192 318 192 392 q 244 192 192 243 q 353 140 290 146 l 353 0 q 146 93 232 7 q 53 318 53 186 q 146 542 53 449 q 353 635 232 628 l 353 494 m 397 140 q 497 192 454 149 q 549 318 549 243 q 497 444 549 392 q 397 494 454 486 l 397 633 q 596 542 513 625 q 688 318 688 449 q 596 93 688 186 q 397 1 513 10 l 397 140 z "},"–":{"ha":697,"x_min":76,"x_max":607,"o":"m 76 515 l 607 515 l 607 376 l 76 376 l 76 515 z "},"—":{"ha":1415,"x_min":76,"x_max":1325,"o":"m 76 528 l 1325 528 l 1325 375 l 76 375 l 76 528 z "},"“":{"ha":667,"x_min":53,"x_max":676,"o":"m 367 822 l 578 611 l 676 710 l 465 921 l 367 822 m 53 815 l 264 604 l 363 703 l 151 914 l 53 815 z "},"”":{"ha":675,"x_min":53,"x_max":675,"o":"z "},"‘":{"ha":432,"x_min":56,"x_max":364,"o":"m 364 717 l 153 928 l 56 829 l 267 618 l 364 717 z "},"’":{"ha":361,"x_min":56,"x_max":365,"o":"m 365 822 l 154 611 l 56 710 l 267 921 l 365 822 z "},"÷":{"ha":600,"x_min":42,"x_max":572,"o":"m 200 196 q 227 261 200 235 q 292 288 254 288 q 358 261 331 288 q 385 196 385 235 q 358 131 385 158 q 292 104 331 104 q 227 131 254 104 q 200 196 200 158 m 42 515 l 572 515 l 572 376 l 42 376 l 42 515 m 199 685 q 226 750 199 724 q 290 776 253 776 q 356 750 329 776 q 383 685 383 724 q 356 620 383 647 q 290 593 329 593 q 226 620 253 593 q 199 685 199 647 z "},"ÿ":{"ha":768,"x_min":58,"x_max":696,"o":"m 696 42 q 603 -185 696 -92 q 378 -278 510 -278 q 249 -250 310 -278 l 249 -85 q 378 -139 301 -139 q 504 -86 451 -139 q 557 42 557 -33 l 557 640 l 696 640 l 696 42 m 507 32 q 378 4 446 4 q 152 97 246 4 q 58 322 58 190 l 58 640 l 197 640 l 197 322 q 250 196 197 249 q 378 143 303 143 q 506 197 453 143 l 507 32 m 172 825 q 199 890 172 864 q 264 917 226 917 q 330 890 303 917 q 357 825 357 864 q 330 760 357 788 q 264 733 303 733 q 199 760 226 733 q 172 825 172 788 m 410 825 q 437 890 410 864 q 501 917 464 917 q 567 890 540 917 q 594 825 594 864 q 567 760 594 788 q 501 733 540 733 q 437 760 464 733 q 410 825 410 788 z "},"Ÿ":{"ha":688,"x_min":26,"x_max":764,"o":"m 192 921 l 450 493 q 456 460 456 483 q 450 428 456 438 l 192 0 l 26 0 l 304 460 l 26 921 l 192 921 m 764 922 l 600 922 l 410 608 l 494 475 l 764 922 m 233 1035 q 258 1085 233 1064 q 317 1107 282 1107 q 376 1085 351 1107 q 400 1035 400 1064 q 376 983 400 1004 q 317 961 351 961 q 258 983 282 961 q 233 1035 233 1004 m 450 1035 q 474 1086 450 1065 q 533 1107 499 1107 q 592 1086 568 1107 q 617 1035 617 1065 q 592 983 617 1004 q 533 961 568 961 q 474 983 499 961 q 450 1035 450 1004 z "},"¤":{"ha":389,"x_min":72,"x_max":306,"o":"m 189 754 q 272 720 238 754 q 306 638 306 686 q 272 555 306 589 q 189 521 238 521 q 106 555 140 521 q 72 638 72 589 q 106 720 72 686 q 189 754 140 754 m 189 667 q 156 633 156 667 q 189 600 156 600 q 222 633 222 600 q 189 667 222 667 z "},"‹":{"ha":310,"x_min":68,"x_max":219,"o":"m 219 182 l 99 300 q 68 353 68 329 q 103 411 68 378 l 219 524 l 218 388 l 185 353 l 219 319 l 219 182 z "},"›":{"ha":301,"x_min":68,"x_max":219,"o":"m 68 182 l 189 300 q 219 353 219 329 q 185 411 219 378 l 68 524 l 68 388 l 103 353 l 68 319 l 68 182 z "},"‡":{"ha":474,"x_min":64,"x_max":425,"o":"m 293 868 l 293 224 l 194 224 l 194 868 l 293 868 m 64 719 l 418 719 l 418 628 l 64 628 l 64 719 m 71 526 l 425 526 l 425 433 l 71 433 l 71 526 z "},"∙":{"ha":339,"x_min":71,"x_max":256,"o":"m 71 525 q 98 590 71 564 q 163 617 125 617 q 228 590 201 617 q 256 525 256 564 q 228 460 256 488 q 163 433 201 433 q 98 460 125 433 q 71 525 71 488 z "},"‚":{"ha":436,"x_min":54,"x_max":364,"o":"m 364 208 l 153 -3 l 54 96 l 265 307 l 364 208 z "},"„":{"ha":742,"x_min":50,"x_max":672,"o":"z "},"‰":{"ha":1193,"x_min":24,"x_max":1185,"o":"m 25 197 l 743 915 l 743 719 l 25 0 l 25 197 m 361 864 q 403 760 403 821 q 357 650 403 696 l 296 589 q 186 544 251 544 q 83 586 125 544 l 157 660 q 188 649 169 649 q 222 663 208 649 l 283 724 q 299 760 299 739 q 286 790 299 778 l 361 864 m 64 606 q 24 706 24 646 q 68 817 24 772 l 129 878 q 240 924 175 924 q 342 883 300 924 l 267 808 q 239 819 257 819 q 204 804 219 819 l 143 743 q 128 707 128 728 q 138 679 128 689 l 64 606 m 697 319 q 740 217 740 278 q 694 107 740 153 l 633 46 q 524 0 588 0 q 421 43 463 0 l 494 117 q 525 106 506 106 q 560 119 546 106 l 621 181 q 635 217 635 194 q 624 246 635 235 l 697 319 m 401 63 q 360 163 360 103 q 406 274 360 228 l 467 335 q 578 381 513 381 q 678 339 638 381 l 604 265 q 576 276 594 276 q 540 261 556 276 l 479 200 q 465 164 465 186 q 475 136 465 146 l 401 63 m 1143 319 q 1185 215 1185 276 q 1140 106 1185 150 l 1079 44 q 969 0 1035 0 q 865 42 908 0 l 940 115 q 969 104 951 104 q 1006 118 992 104 l 1067 179 q 1081 215 1081 193 q 1069 246 1081 233 l 1143 319 m 847 61 q 806 161 806 101 q 851 272 806 226 l 913 333 q 1024 379 958 379 q 1124 339 1083 379 l 1050 264 q 1022 275 1039 275 q 986 260 1001 275 l 925 199 q 910 163 910 183 q 921 135 910 146 l 847 61 z "},"Â":{"ha":790,"x_min":64,"x_max":713,"o":"m 532 714 q 519 728 526 721 q 388 782 464 782 q 256 728 310 782 q 203 597 203 674 l 203 0 l 64 0 l 64 597 q 158 826 64 732 q 388 921 253 921 q 532 888 465 921 l 532 714 m 565 868 q 617 826 592 850 q 713 597 713 732 l 713 0 l 574 0 l 574 194 l 231 194 l 231 333 l 574 333 l 574 597 q 565 653 574 626 l 565 868 m 224 956 l 342 1076 q 394 1107 371 1107 q 451 1072 418 1107 l 565 956 l 429 956 l 394 990 l 360 956 l 224 956 z "},"Ê":{"ha":650,"x_min":60,"x_max":614,"o":"m 199 746 l 199 139 l 614 139 l 614 0 l 129 0 q 81 21 101 0 q 60 69 60 42 l 60 746 l 199 746 m 60 922 l 614 922 l 614 783 l 60 783 l 60 922 m 238 496 l 614 496 l 614 357 l 238 357 l 238 496 m 185 974 l 290 1081 q 338 1108 318 1108 q 389 1078 360 1108 l 490 974 l 368 974 l 338 1004 l 307 974 l 185 974 z "},"Á":{"ha":788,"x_min":63,"x_max":711,"o":"m 572 194 l 229 194 l 229 333 l 572 333 l 572 597 q 517 728 572 674 q 386 782 463 782 q 256 728 310 782 q 201 597 201 674 l 201 0 l 63 0 l 63 597 q 157 826 63 732 q 386 921 251 921 q 615 826 519 921 q 711 597 711 732 l 711 0 l 572 0 l 572 194 m 400 1104 l 199 946 l 353 946 l 557 1104 l 400 1104 z "},"Ë":{"ha":657,"x_min":64,"x_max":618,"o":"m 203 746 l 203 139 l 618 139 l 618 0 l 133 0 q 85 21 106 0 q 64 69 64 42 l 64 746 l 203 746 m 64 922 l 618 922 l 618 783 l 64 783 l 64 922 m 242 496 l 618 496 l 618 357 l 242 357 l 242 496 m 143 1032 q 168 1093 143 1068 q 228 1118 193 1118 q 288 1093 263 1118 q 313 1032 313 1068 q 288 972 313 997 q 228 947 263 947 q 168 972 193 947 q 143 1032 143 997 m 363 1033 q 388 1093 363 1068 q 449 1118 413 1118 q 508 1093 483 1118 q 533 1033 533 1068 q 508 972 533 997 q 449 947 483 947 q 388 972 413 947 q 363 1033 363 997 z "},"È":{"ha":649,"x_min":60,"x_max":614,"o":"m 199 746 l 199 139 l 614 139 l 614 0 l 129 0 q 81 21 101 0 q 60 69 60 42 l 60 746 l 199 746 m 60 922 l 614 922 l 614 783 l 60 783 l 60 922 m 238 496 l 614 496 l 614 357 l 238 357 l 238 496 m 351 1113 l 531 940 l 393 940 l 213 1113 l 351 1113 z "},"Í":{"ha":351,"x_min":54,"x_max":378,"o":"m 236 1111 l 54 985 l 193 985 l 378 1111 l 236 1111 m 136 922 l 275 922 l 275 0 l 136 0 l 136 922 z "},"Î":{"ha":353,"x_min":67,"x_max":343,"o":"m 136 922 l 275 922 l 275 0 l 136 0 l 136 922 m 67 953 l 163 1067 q 206 1094 186 1094 q 251 1063 225 1094 l 343 953 l 232 953 l 206 985 l 178 953 l 67 953 z "},"Ï":{"ha":353,"x_min":60,"x_max":353,"o":"m 60 1050 q 78 1098 60 1078 q 124 1118 97 1118 q 169 1098 150 1118 q 188 1050 188 1078 q 169 1002 188 1022 q 124 982 150 982 q 78 1002 97 982 q 60 1050 60 1022 m 225 1050 q 244 1098 225 1078 q 289 1118 263 1118 q 334 1098 315 1118 q 353 1050 353 1078 q 334 1002 353 1022 q 289 982 315 982 q 244 1002 263 982 q 225 1050 225 1022 m 138 922 l 276 922 l 276 0 l 138 0 l 138 922 z "},"Ì":{"ha":343,"x_min":60,"x_max":381,"o":"m 200 1113 l 381 947 l 243 947 l 60 1113 l 200 1113 m 125 922 l 264 922 l 264 0 l 125 0 l 125 922 z "},"Ó":{"ha":1025,"x_min":42,"x_max":969,"o":"m 506 928 q 833 792 697 928 q 969 464 969 656 q 833 136 969 272 q 506 0 697 0 q 178 136 314 0 q 42 464 42 272 q 178 792 42 656 q 506 928 314 928 m 506 789 q 276 694 371 789 q 181 464 181 599 q 276 234 181 329 q 506 139 371 139 q 735 234 640 139 q 831 464 831 329 q 735 694 831 599 q 506 789 640 789 m 533 1110 l 324 954 l 485 954 l 696 1110 l 533 1110 z "},"Ô":{"ha":1031,"x_min":44,"x_max":972,"o":"m 508 928 q 836 792 700 928 q 972 464 972 656 q 836 136 972 272 q 508 0 700 0 q 181 136 317 0 q 44 464 44 272 q 181 792 44 656 q 508 928 317 928 m 508 789 q 278 694 374 789 q 183 464 183 599 q 278 234 183 329 q 508 139 374 139 q 738 234 643 139 q 833 464 833 329 q 738 694 833 599 q 508 789 643 789 m 347 976 l 461 1078 q 511 1104 490 1104 q 567 1075 535 1104 l 675 976 l 544 976 l 511 1006 l 479 976 l 347 976 z "},"Ò":{"ha":1031,"x_min":44,"x_max":972,"o":"m 508 928 q 836 792 700 928 q 972 464 972 656 q 836 136 972 272 q 508 0 700 0 q 180 136 315 0 q 44 464 44 272 q 180 792 44 656 q 508 928 315 928 m 508 789 q 278 694 374 789 q 183 464 183 599 q 278 234 183 329 q 508 139 374 139 q 738 234 642 139 q 833 464 833 329 q 738 694 833 599 q 508 789 642 789 m 503 1107 l 715 960 l 551 960 l 336 1107 l 503 1107 z "},"Ú":{"ha":794,"x_min":63,"x_max":721,"o":"m 201 324 q 256 193 201 247 q 388 139 311 139 q 518 193 464 139 q 572 324 572 247 l 572 921 l 711 921 l 711 324 q 617 94 711 189 q 388 0 522 0 q 158 94 254 0 q 63 324 63 189 l 63 921 l 201 921 l 201 324 m 521 1115 l 265 856 l 461 856 l 721 1115 l 521 1115 z "},"Û":{"ha":789,"x_min":64,"x_max":713,"o":"m 203 324 q 257 193 203 247 q 389 139 311 139 q 519 193 465 139 q 574 324 574 247 l 574 921 l 713 921 l 713 324 q 617 94 713 189 q 389 0 522 0 q 159 94 254 0 q 64 324 64 189 l 64 921 l 203 921 l 203 324 m 222 974 l 338 1085 q 389 1111 365 1111 q 444 1081 413 1111 l 556 974 l 422 974 l 389 1006 l 356 974 l 222 974 z "},"Ù":{"ha":790,"x_min":64,"x_max":713,"o":"m 203 324 q 258 193 203 247 q 389 139 313 139 q 519 193 465 139 q 574 324 574 247 l 574 921 l 713 921 l 713 324 q 618 94 713 189 q 389 0 524 0 q 160 94 256 0 q 64 324 64 189 l 64 921 l 203 921 l 203 324 m 315 1104 l 518 842 l 363 842 l 157 1104 l 315 1104 z "},"ˆ":{"ha":0,"x_min":225,"x_max":567,"o":"m 225 736 l 343 857 q 396 888 372 888 q 453 853 419 888 l 567 736 l 431 736 l 396 771 l 361 736 l 225 736 z "},"˜":{"ha":0,"x_min":279,"x_max":706,"o":"m 297 717 q 279 785 279 750 q 330 887 279 846 q 443 921 381 928 q 544 847 510 913 q 563 836 550 836 q 585 857 585 836 q 582 868 585 863 l 688 924 q 706 856 706 889 q 655 753 706 794 q 542 718 604 711 q 440 792 476 726 q 422 803 435 803 q 399 783 399 803 q 403 772 399 778 l 297 717 z "},"¯":{"ha":0,"x_min":229,"x_max":583,"o":"m 229 903 l 583 903 l 583 764 l 229 764 l 229 903 z "},"¸":{"ha":0,"x_min":274,"x_max":388,"o":"m 274 -22 q 354 -56 321 -22 q 388 -136 388 -89 q 354 -217 388 -183 q 274 -250 321 -250 l 274 -181 q 318 -136 318 -181 q 274 -92 318 -92 l 274 -22 z "},"Š":{"ha":657,"x_min":61,"x_max":611,"o":"m 451 667 q 418 747 451 714 q 336 781 385 781 q 256 747 289 781 q 222 667 222 714 q 256 585 222 618 q 336 551 289 551 q 531 471 450 551 q 611 276 611 390 q 531 82 611 163 q 336 1 450 1 q 142 82 222 1 q 61 276 61 163 l 200 276 q 240 181 200 221 q 336 140 281 140 q 433 181 393 140 q 472 276 472 221 q 433 373 472 333 q 336 413 393 413 q 158 487 232 413 q 83 667 83 561 q 158 845 83 771 q 336 919 232 919 q 516 845 442 919 q 590 667 590 771 l 451 667 m 181 1065 l 293 961 q 344 935 322 935 q 399 964 367 935 l 508 1065 l 378 1065 l 344 1036 l 311 1065 l 181 1065 z "},"š":{"ha":518,"x_min":67,"x_max":465,"o":"m 313 447 q 299 481 313 467 q 265 494 285 494 q 232 481 246 494 q 218 447 218 467 q 232 414 218 428 q 265 400 246 400 q 407 341 349 400 q 465 200 465 282 q 407 58 465 117 q 265 0 349 0 q 125 58 183 0 q 67 200 67 117 l 206 200 q 223 157 206 175 q 265 139 240 139 q 309 157 292 139 q 326 200 326 175 q 309 243 326 225 q 265 261 292 261 q 134 315 189 261 q 79 447 79 369 q 134 578 79 524 q 265 633 189 633 q 397 578 343 633 q 451 447 451 524 l 313 447 m 93 800 l 211 679 q 264 649 240 649 q 321 683 288 649 l 435 800 l 297 800 l 264 765 l 229 800 l 93 800 z "},"¦":{"ha":292,"x_min":76,"x_max":229,"o":"m 229 406 l 229 -7 l 78 -7 l 78 406 l 229 406 m 226 914 l 226 501 l 76 501 l 76 914 l 226 914 z "},"Ð":{"ha":951,"x_min":53,"x_max":885,"o":"m 364 922 l 364 139 l 417 139 q 649 234 551 139 q 746 463 746 329 q 652 689 746 594 q 425 783 558 783 l 404 783 l 404 922 l 425 922 q 750 788 615 922 q 885 463 885 653 q 747 135 885 271 q 417 0 608 0 l 294 0 q 246 21 267 0 q 225 69 225 42 l 225 922 l 364 922 m 53 553 l 528 553 l 528 401 l 53 401 l 53 553 z "},"ð":{"ha":624,"x_min":-187,"x_max":596,"o":"m 164 640 q 135 642 149 642 q -93 548 1 642 q -187 321 -187 454 q -93 94 -187 188 q 135 0 1 0 q 361 94 267 0 q 456 321 456 188 q 424 458 456 389 l 210 922 l 83 864 l 299 399 q 317 321 317 360 q 263 192 317 246 q 135 139 210 139 q 5 192 58 139 q -49 321 -49 246 q 5 449 -49 396 q 135 503 58 503 q 247 464 197 503 l 164 640 m 268 786 l 535 922 l 596 801 l 329 665 l 268 786 z "},"Ý":{"ha":689,"x_min":28,"x_max":765,"o":"m 193 921 l 451 493 q 457 460 457 483 q 451 428 457 438 l 193 0 l 28 0 l 307 460 l 28 921 l 193 921 m 765 922 l 601 922 l 411 608 l 496 475 l 765 922 m 507 1106 l 314 910 l 463 910 l 658 1106 l 507 1106 z "},"ý":{"ha":753,"x_min":53,"x_max":713,"o":"m 690 42 q 597 -185 690 -92 q 372 -278 504 -278 q 243 -250 304 -278 l 243 -85 q 372 -139 296 -139 q 499 -86 446 -139 q 551 42 551 -33 l 551 640 l 690 640 l 690 42 m 501 32 q 372 4 440 4 q 147 97 240 4 q 53 322 53 190 l 53 640 l 192 640 l 192 322 q 244 196 192 249 q 372 143 297 143 q 500 197 447 143 l 501 32 m 513 918 l 257 658 l 453 658 l 713 918 l 513 918 z "},"Þ":{"ha":731,"x_min":54,"x_max":689,"o":"m 54 922 l 193 922 l 193 0 l 54 0 l 54 922 m 354 644 q 246 594 292 639 q 193 468 193 542 q 246 342 193 393 q 354 290 292 296 l 354 150 q 147 243 233 157 q 54 468 54 336 q 147 692 54 599 q 354 785 233 778 l 354 644 m 399 290 q 499 342 456 299 q 550 468 550 393 q 499 594 550 542 q 399 644 456 636 l 399 783 q 597 692 514 775 q 689 468 689 599 q 597 243 689 336 q 399 151 514 160 l 399 290 z "},"þ":{"ha":726,"x_min":32,"x_max":667,"o":"m 32 642 l 171 642 l 171 -281 l 32 -281 l 32 642 m 332 364 q 224 314 269 358 q 171 188 171 261 q 224 61 171 113 q 332 10 269 15 l 332 -131 q 125 -37 211 -124 q 32 188 32 56 q 125 411 32 318 q 332 504 211 497 l 332 364 m 376 10 q 476 61 433 18 q 528 188 528 113 q 476 314 528 261 q 376 364 433 356 l 376 503 q 575 411 492 494 q 667 188 667 318 q 575 -37 667 56 q 376 -129 492 -121 l 376 10 z "},"­":{"ha":515,"x_min":-104,"x_max":426,"o":"m -104 515 l 426 515 l 426 376 l -104 376 l -104 515 z "},"×":{"ha":467,"x_min":-82,"x_max":390,"o":"m 390 343 l 293 244 l 154 383 l 15 244 l -82 343 l 56 482 l -82 619 l 15 718 l 154 579 l 293 718 l 390 619 l 253 482 l 390 343 z "},"¹":{"ha":310,"x_min":71,"x_max":226,"o":"m 71 817 q 158 897 83 829 q 207 919 189 919 q 226 888 226 919 l 226 531 l 161 531 l 161 817 l 115 775 l 71 817 z "},"²":{"ha":406,"x_min":71,"x_max":349,"o":"m 156 599 l 267 728 q 286 779 286 750 q 263 833 286 810 q 208 857 239 857 q 154 833 178 857 q 131 779 131 810 l 71 779 q 113 875 71 833 q 208 917 154 917 q 304 875 263 917 q 346 779 346 833 q 313 688 346 725 l 235 599 l 156 599 m 74 581 l 349 581 l 349 521 l 74 521 l 74 581 z "},"³":{"ha":289,"x_min":68,"x_max":235,"o":"m 235 646 q 199 560 235 596 q 114 525 164 525 l 68 525 l 68 583 l 114 585 q 158 603 139 586 q 176 646 176 621 q 158 690 176 672 q 114 708 139 708 l 68 708 l 68 764 q 101 778 88 764 q 115 811 115 792 q 101 844 115 831 q 68 858 88 858 l 68 917 q 143 886 113 917 q 174 811 174 856 q 160 758 174 783 q 235 646 235 728 z "},"½":{"ha":592,"x_min":39,"x_max":538,"o":"m 39 486 l 538 486 l 538 426 l 39 426 l 39 486 m 169 813 q 257 893 182 825 q 304 915 288 915 q 325 883 325 915 l 325 526 l 260 526 l 260 813 l 214 771 l 169 813 m 238 85 l 349 213 q 368 265 368 235 q 344 319 368 296 q 290 343 321 343 q 236 319 260 343 q 213 265 213 296 l 153 265 q 194 361 153 319 q 290 403 236 403 q 386 361 344 403 q 428 265 428 319 q 393 174 428 214 l 317 85 l 238 85 m 156 67 l 431 67 l 431 7 l 156 7 l 156 67 z "},"¼":{"ha":574,"x_min":42,"x_max":546,"o":"m 179 821 q 268 901 199 839 q 315 925 296 925 q 336 892 336 925 l 336 535 l 271 535 l 271 821 l 225 781 l 179 821 m 272 307 l 142 165 l 272 165 l 272 106 l 75 106 q 42 132 42 106 q 53 156 42 143 l 272 394 l 272 307 m 292 394 l 351 394 l 351 0 l 292 0 l 292 394 m 47 486 l 546 486 l 546 426 l 47 426 l 47 486 z "},"¾":{"ha":593,"x_min":40,"x_max":538,"o":"m 329 304 l 199 163 l 329 163 l 329 103 l 131 103 q 99 128 99 103 q 110 153 99 140 l 329 392 l 329 304 m 349 392 l 408 392 l 408 -3 l 349 -3 l 349 392 m 399 646 q 363 560 399 596 q 276 525 326 525 l 231 525 l 231 583 l 276 583 q 321 602 303 583 q 339 646 339 621 q 321 690 339 672 q 276 708 303 708 l 231 708 l 231 764 q 264 778 250 764 q 278 811 278 792 q 264 844 278 831 q 231 858 250 858 l 231 917 q 306 885 275 917 q 338 811 338 854 q 324 758 338 782 q 399 646 399 728 m 40 482 l 538 482 l 538 422 l 40 422 l 40 482 z "},"Ł":{"ha":735,"x_min":43,"x_max":715,"o":"m 300 922 l 300 139 l 715 139 l 715 0 l 231 0 q 182 21 203 0 q 161 69 161 42 l 161 922 l 300 922 m 43 444 l 344 697 l 431 594 l 129 342 l 43 444 z "},"ł":{"ha":438,"x_min":61,"x_max":449,"o":"m 185 922 l 324 922 l 324 0 l 185 0 l 185 922 m 61 399 l 363 651 l 449 549 l 146 296 l 61 399 z "},"Ž":{"ha":786,"x_min":29,"x_max":744,"o":"m 31 924 l 668 924 q 744 865 744 924 q 725 814 744 840 l 239 139 l 742 139 l 742 0 l 104 0 q 29 58 29 0 q 47 110 29 85 l 533 785 l 31 785 l 31 924 m 229 1065 l 343 960 q 394 933 371 933 q 449 963 417 933 l 560 1065 l 426 1065 l 394 1035 l 361 1065 l 229 1065 z "},"ž":{"ha":719,"x_min":44,"x_max":661,"o":"m 50 646 l 583 646 q 661 588 661 646 q 635 529 661 558 l 281 139 l 657 139 l 657 0 l 121 0 q 44 58 44 0 q 71 117 44 88 l 424 507 l 50 507 l 50 646 m 201 804 l 319 683 q 372 653 349 653 q 429 688 396 653 l 543 804 l 406 804 l 372 769 l 338 804 l 201 804 z "},"≠":{"ha":629,"x_min":56,"x_max":586,"o":"m 56 376 l 586 376 l 586 238 l 56 238 l 56 376 m 56 654 l 586 654 l 586 515 l 56 515 l 56 654 m 138 238 l 471 838 l 471 674 l 138 72 l 138 238 z "},"∞":{"ha":1257,"x_min":57,"x_max":1183,"o":"m 374 635 q 599 542 506 635 q 692 318 692 449 q 599 93 692 186 q 374 0 506 0 q 149 93 242 0 q 57 318 57 186 q 149 542 57 449 q 374 635 242 635 m 374 496 q 248 444 300 496 q 196 318 196 392 q 248 191 196 243 q 374 139 300 139 q 500 191 447 139 q 553 318 553 243 q 500 444 553 392 q 374 496 447 496 m 865 -1 q 1090 92 997 -1 q 1183 317 1183 185 q 1090 540 1183 447 q 865 633 997 633 q 642 540 735 633 q 549 317 549 447 q 642 92 549 185 q 865 -1 735 -1 m 865 138 q 740 190 792 138 q 688 317 688 242 q 740 442 688 390 q 865 494 792 494 q 992 442 940 494 q 1044 317 1044 390 q 992 190 1044 242 q 865 138 940 138 z "},"≤":{"ha":432,"x_min":58,"x_max":360,"o":"m 346 636 l 204 489 l 346 343 l 346 167 l 71 453 q 58 489 58 465 q 71 525 58 513 l 346 811 l 346 636 m 65 126 l 360 126 l 360 0 l 65 0 l 65 126 z "},"≥":{"ha":425,"x_min":58,"x_max":360,"o":"m 72 636 l 213 489 l 72 343 l 72 167 l 346 453 q 360 489 360 467 q 346 525 360 511 l 72 811 l 72 636 m 353 126 l 58 126 l 58 0 l 353 0 l 353 126 z "},"∂":{"ha":751,"x_min":47,"x_max":689,"o":"m 397 640 q 368 642 383 642 q 142 548 236 642 q 47 321 47 454 q 142 94 47 188 q 368 0 236 0 q 595 94 501 0 q 689 321 689 188 q 658 458 689 393 l 443 922 l 318 864 l 533 399 q 550 321 550 363 q 497 192 550 246 q 368 139 444 139 q 240 192 293 139 q 186 321 186 246 q 240 449 186 396 q 368 503 293 503 q 481 464 432 503 l 397 640 z "},"Σ":{"ha":638,"x_min":49,"x_max":576,"o":"m 576 775 l 250 775 q 390 565 307 690 q 438 456 438 494 q 390 346 438 418 q 250 136 326 247 l 576 136 l 576 -4 l 122 -4 q 49 46 49 -4 q 129 217 49 96 l 288 456 q 129 694 144 668 q 49 865 49 822 q 122 917 49 917 l 576 917 l 576 775 z "},"∏":{"ha":900,"x_min":76,"x_max":814,"o":"m 76 0 l 76 854 q 97 903 76 882 q 146 924 118 924 l 744 924 q 793 903 772 924 q 814 854 814 882 l 814 0 l 675 0 l 675 785 l 215 785 l 215 0 l 76 0 z "},"π":{"ha":710,"x_min":76,"x_max":619,"o":"m 76 0 l 76 572 q 97 621 76 600 q 146 642 118 642 l 550 642 q 599 621 578 642 q 619 572 619 600 l 619 0 l 481 0 l 481 503 l 215 503 l 215 0 l 76 0 z "},"∫":{"ha":483,"x_min":38,"x_max":536,"o":"m 38 139 q 165 192 113 139 q 218 319 218 244 l 218 603 q 311 829 218 736 q 536 922 404 922 l 536 783 q 410 731 463 783 q 357 603 357 678 l 357 319 q 263 93 357 186 q 38 0 169 0 l 38 139 z "},"Ω":{"ha":1115,"x_min":61,"x_max":1040,"o":"m 1040 0 l 779 0 q 722 18 743 0 q 700 63 700 36 q 742 128 700 100 q 899 422 899 231 q 797 669 899 567 q 550 771 694 771 q 303 669 406 771 q 200 422 200 567 q 243 253 200 332 q 361 128 286 175 q 404 63 404 100 q 324 0 404 0 l 64 0 l 64 139 l 151 139 q 61 422 61 265 q 204 767 61 624 q 550 910 347 910 q 894 767 751 910 q 1038 422 1038 624 q 949 139 1038 265 l 1040 139 l 1040 0 z "},"√":{"ha":501,"x_min":47,"x_max":544,"o":"m 47 636 l 172 286 l 397 921 l 544 921 l 238 56 q 172 -3 217 -3 q 106 56 126 -3 l 49 218 l 47 636 z "},"≈":{"ha":853,"x_min":67,"x_max":800,"o":"m 103 506 q 71 565 71 535 q 158 656 71 619 q 351 688 244 693 q 525 622 467 681 q 556 611 536 611 q 594 631 594 611 q 590 639 594 635 l 769 689 q 800 628 800 658 q 713 537 800 574 q 521 507 625 500 q 346 572 406 514 q 315 582 336 582 q 276 564 276 582 q 282 554 276 560 l 103 506 m 97 276 q 67 338 67 307 q 154 428 67 392 q 346 458 242 465 q 521 393 461 451 q 551 383 531 383 q 590 403 590 383 q 585 411 590 407 l 764 461 q 796 400 796 431 q 708 309 796 346 q 515 279 621 272 q 340 344 400 286 q 310 354 331 354 q 271 336 271 354 q 276 326 271 332 l 97 276 z "},"∆":{"ha":1063,"x_min":21,"x_max":1092,"o":"m 1078 106 q 1092 60 1092 82 q 1018 0 1092 0 l 94 0 q 21 60 21 0 q 35 106 21 83 l 500 869 q 560 910 525 910 q 619 869 596 910 l 1078 106 m 894 139 l 560 699 l 218 139 l 894 139 z "},"◊":{"ha":743,"x_min":38,"x_max":688,"o":"m 363 800 l 688 475 l 363 150 l 38 475 l 363 800 m 363 711 l 125 475 l 363 239 l 599 475 l 363 711 z "},"∕":{"ha":747,"x_min":8,"x_max":726,"o":"m 8 197 l 726 915 l 726 719 l 8 0 l 8 197 z "},"":{"ha":583,"x_min":65,"x_max":507,"o":"m 383 783 q 256 731 308 783 q 204 603 204 678 l 204 600 l 383 600 l 383 461 l 204 461 l 204 0 l 65 0 l 65 603 q 158 829 65 736 q 383 922 251 922 l 383 783 m 507 601 l 507 -4 l 371 -4 l 371 601 l 507 601 z "},"":{"ha":706,"x_min":72,"x_max":619,"o":"m 390 783 q 264 731 317 783 q 211 603 211 678 l 211 600 l 390 600 l 390 461 l 211 461 l 211 0 l 72 0 l 72 603 q 165 829 72 736 q 390 922 258 922 l 390 783 m 481 922 l 619 922 l 619 0 l 481 0 l 481 922 z "},"":{"ha":1003,"x_min":46,"x_max":971,"o":"m 971 475 l 969 475 q 838 140 969 279 q 522 0 707 0 q 186 131 326 0 q 46 449 46 263 q 176 783 46 643 q 494 924 307 924 q 830 793 689 924 q 971 475 971 663 m 917 494 q 797 753 904 646 q 539 872 690 861 q 615 833 546 860 q 676 764 676 810 q 651 701 676 719 q 606 688 643 696 q 565 672 569 679 q 607 644 607 660 q 585 624 607 646 q 561 581 563 601 q 632 508 608 563 q 674 533 653 511 q 694 556 696 556 q 722 513 711 556 q 738 556 731 518 q 750 600 746 593 q 813 625 767 625 q 879 571 857 625 q 917 494 907 503 m 613 779 l 613 781 q 581 819 613 804 q 531 844 557 831 q 549 801 533 829 q 556 786 556 794 q 533 772 546 782 q 561 757 561 763 q 546 738 561 750 q 531 719 531 726 l 531 669 q 574 735 535 696 q 613 779 613 775 m 892 482 q 865 532 888 486 q 825 564 850 564 q 783 525 821 564 q 719 482 746 486 q 738 481 731 482 q 753 482 743 481 l 767 482 q 786 498 775 482 q 803 514 797 514 q 819 483 811 514 q 835 507 824 486 q 850 499 840 507 q 873 488 860 492 q 892 482 886 485 m 499 686 l 497 719 q 482 736 497 725 q 467 756 467 747 q 497 772 467 764 q 472 786 493 778 q 481 800 472 790 q 499 843 486 815 q 449 817 494 839 q 415 778 415 800 q 454 734 415 775 q 499 668 493 693 l 499 686 m 892 447 l 893 449 q 849 429 878 446 q 833 422 842 422 q 821 442 831 431 q 803 415 818 429 q 785 431 796 415 q 767 447 774 447 q 751 449 761 447 l 736 449 q 719 447 725 449 q 786 403 746 442 q 826 365 822 365 q 865 399 849 365 q 892 447 888 443 m 619 461 q 590 537 619 504 q 518 569 561 569 q 461 510 460 569 q 515 461 461 486 q 568 411 568 436 q 518 357 568 363 q 590 390 560 360 q 619 461 619 419 m 489 875 l 490 876 q 222 760 335 869 q 99 496 108 650 q 139 572 111 503 q 208 631 161 631 q 271 606 254 631 q 283 561 275 599 q 300 519 292 524 q 326 561 313 561 q 349 538 324 561 q 396 514 374 514 q 472 585 419 563 q 447 627 469 606 q 424 647 424 649 q 467 674 424 665 q 425 690 463 682 q 381 704 388 699 q 356 767 356 722 q 414 835 356 813 q 489 875 482 861 m 921 442 q 883 363 908 432 q 817 307 864 307 q 753 332 771 307 q 739 379 747 340 q 725 418 733 414 q 717 392 718 394 q 697 375 710 375 q 677 397 699 375 q 636 422 656 419 q 558 344 615 368 q 585 301 561 324 q 608 279 608 278 q 565 253 608 261 q 607 237 569 244 q 651 224 644 229 q 676 160 676 206 q 621 94 676 117 q 543 56 553 68 q 805 177 697 67 q 921 442 913 288 m 535 410 l 533 408 q 513 432 533 432 q 490 408 490 432 q 511 386 490 386 q 535 410 535 386 m 301 486 l 303 488 q 236 530 275 492 q 193 568 197 568 q 156 535 172 568 q 128 486 136 494 q 172 504 143 490 q 188 513 179 511 q 201 488 196 492 l 208 507 q 217 517 211 517 q 235 502 224 517 q 254 488 247 488 l 269 488 q 285 486 279 486 l 301 486 m 614 147 q 575 190 614 151 q 532 254 536 228 q 531 236 532 243 q 532 222 531 232 l 532 207 q 548 189 532 200 q 564 171 564 178 q 538 153 564 161 q 557 139 544 149 q 551 125 557 133 q 532 81 546 111 q 582 108 538 86 q 614 147 614 124 m 303 453 l 303 454 l 271 454 q 251 451 253 451 q 238 438 243 449 q 218 422 229 422 q 200 447 210 422 q 189 428 192 442 q 174 433 182 428 q 129 453 160 439 q 157 404 138 444 q 194 371 174 371 q 237 410 199 371 q 303 453 275 449 m 499 239 l 499 257 q 456 192 494 231 q 417 149 417 153 q 449 110 417 125 q 497 83 494 88 q 479 126 496 97 q 472 142 472 133 q 496 156 492 149 l 479 161 q 467 172 467 165 q 482 190 467 178 q 497 210 497 203 l 497 224 q 499 239 499 235 m 486 56 q 410 94 478 68 q 354 161 354 117 q 379 225 354 207 q 426 239 388 231 q 465 253 461 244 l 439 261 q 422 281 422 269 q 445 303 422 281 q 471 346 468 325 q 392 428 413 371 q 350 403 372 426 q 328 381 328 381 q 301 421 310 381 q 285 379 293 417 q 272 335 276 342 q 210 310 256 310 q 142 369 165 310 q 99 447 115 439 q 217 178 106 292 q 486 56 329 65 m 538 517 l 536 517 q 515 493 536 493 q 493 514 493 493 q 515 539 493 536 q 538 517 538 539 z "},"ı":{"ha":713,"x_min":439,"x_max":578,"o":"m 578 642 l 578 0 l 439 0 l 439 642 l 578 642 z "},"˘":{"ha":0,"x_min":47,"x_max":389,"o":"m 47 817 l 165 697 q 218 667 196 667 q 275 700 243 667 l 389 817 l 253 817 l 218 783 l 183 817 l 47 817 z "},"˙":{"ha":0,"x_min":319,"x_max":504,"o":"m 319 826 q 347 892 319 865 q 411 918 374 918 q 477 892 450 918 q 504 826 504 865 q 477 762 504 789 q 411 735 450 735 q 347 762 374 735 q 319 826 319 789 z "},"˚":{"ha":0,"x_min":286,"x_max":519,"o":"m 403 924 q 485 890 451 924 q 519 807 519 856 q 485 724 519 758 q 403 690 451 690 q 320 724 354 690 q 286 807 286 758 q 320 890 286 856 q 403 924 354 924 m 403 836 q 369 803 369 836 q 403 769 369 769 q 436 803 436 769 q 403 836 436 836 z "},"˝":{"ha":0,"x_min":197,"x_max":546,"o":"m 197 631 l 278 804 l 357 743 l 224 610 l 197 631 m 386 631 l 467 804 l 546 743 l 413 610 l 386 631 z "},"˛":{"ha":0,"x_min":268,"x_max":382,"o":"m 382 -22 q 301 -56 335 -22 q 268 -136 268 -89 q 301 -217 268 -183 q 382 -250 335 -250 l 382 -181 q 338 -136 338 -181 q 382 -92 338 -92 l 382 -22 z "},"ˇ":{"ha":0,"x_min":236,"x_max":531,"o":"m 338 849 q 383 801 338 801 q 415 815 401 801 q 429 849 429 829 l 531 849 q 488 744 531 788 q 383 700 444 700 q 279 744 322 700 q 236 849 236 788 l 338 849 z "}}}
